<svg width="460" height="441" viewBox="0 0 460 441" fill="none" xmlns="http://www.w3.org/2000/svg">
<path d="M230.687 440.181C356.851 440.181 459.127 386.925 459.127 321.231C459.127 255.536 356.851 202.281 230.687 202.281C104.523 202.281 2.24662 255.536 2.24662 321.231C2.24662 386.925 104.523 440.181 230.687 440.181Z" fill="#F5F5F5"/>
<path d="M377.037 336.771C410.687 336.771 437.967 321.02 437.967 301.591C437.967 282.161 410.687 266.411 377.037 266.411C343.386 266.411 316.107 282.161 316.107 301.591C316.107 321.02 343.386 336.771 377.037 336.771Z" fill="#E6E6E6"/>
<path d="M131.657 280.711C154.967 294.171 155.917 316.391 132.597 329.851C109.277 343.311 70.5466 342.911 47.2266 329.451C23.9066 315.991 23.9166 294.171 47.2266 280.711C70.5366 267.251 108.327 267.251 131.657 280.711Z" fill="#E6E6E6"/>
<path d="M321.797 353.241L245.277 309.061C243.935 308.38 242.451 308.025 240.947 308.025C239.442 308.025 237.958 308.38 236.617 309.061L160.097 353.241C157.707 354.621 157.707 356.861 160.097 358.241L194.947 378.361L162.397 397.151C155.787 400.961 145.027 400.961 138.397 397.151L87.1966 367.591C84.3766 365.961 82.8166 363.911 82.8166 361.831C82.8166 359.751 84.3766 357.691 87.1966 356.061L132.567 329.861C132.806 329.736 133.017 329.564 133.188 329.355C133.358 329.146 133.485 328.905 133.56 328.646C133.636 328.387 133.657 328.115 133.625 327.847C133.592 327.58 133.506 327.321 133.371 327.088C133.236 326.854 133.055 326.65 132.839 326.489C132.624 326.327 132.377 326.21 132.115 326.146C131.853 326.082 131.581 326.071 131.315 326.115C131.049 326.159 130.794 326.256 130.567 326.401L85.2166 352.581C81.1066 354.961 78.8366 358.241 78.8366 361.821C78.8366 365.401 81.1066 368.671 85.2166 371.051L136.417 400.611C140.746 402.842 145.546 404.006 150.417 404.006C155.287 404.006 160.087 402.842 164.417 400.611L198.967 380.671L236.657 402.421C237.998 403.102 239.482 403.456 240.987 403.456C242.491 403.456 243.975 403.102 245.317 402.421L321.837 358.241C324.187 356.861 324.187 354.621 321.797 353.241Z" fill="#E6E6E6"/>
<path d="M409.237 285.071C409.237 285.071 412.017 243.891 411.237 228.711C410.587 216.711 408.957 211.711 408.617 209.001C408.617 209.001 405.667 181.001 405.427 157.111C405.307 145.631 404.247 137.471 397.957 123.831L357.527 133.501C356.707 139.561 353.927 179.861 353.267 215.691C352.697 247.061 353.587 274.521 353.587 274.521V276.171C353.587 278.011 353.187 279.291 352.007 282.231C350.532 286.019 348.414 289.523 345.747 292.591C344.917 293.491 339.147 298.531 338.387 299.591C335.907 302.481 341.047 304.111 344.857 303.591C348.857 303.051 355.117 301.521 356.857 299.081C358.037 297.441 358.927 291.731 360.137 290.081C364.227 284.501 365.907 282.081 365.937 280.321C365.997 277.101 364.887 275.831 364.487 274.011C364.817 270.211 373.027 238.961 373.167 227.891C373.237 222.621 372.877 215.361 372.877 215.361L379.237 178.841C381.697 187.961 386.017 210.601 387.477 219.291C389.247 229.911 393.877 257.171 396.617 273.431C397.667 279.701 398.157 282.871 398.617 285.781L398.727 287.021C398.817 288.601 399.967 305.501 400.587 309.021C401.887 316.411 408.457 315.481 409.507 309.501C410.407 304.421 409.287 288.661 409.257 286.731L409.237 285.071Z" fill="#FFA8A7"/>
<path d="M409.237 285.071C411.097 285.071 409.877 292.281 410.357 296.891C410.867 301.841 412.487 305.461 412.957 309.511C413.587 313.05 413.043 316.699 411.407 319.901C410.117 322.901 403.617 326.901 401.147 322.691C398.677 318.481 398.147 313.611 398.437 308.991C398.727 304.371 398.437 301.271 398.527 297.641C398.617 294.441 396.267 286.271 398.677 285.811L398.787 287.051C399.657 288.781 408.437 289.121 409.317 286.781L409.237 285.071Z" fill="#37474F"/>
<path d="M366.357 284.251C366.927 286.561 366.357 292.901 366.357 292.901C366.357 292.901 365.357 295.091 361.787 296.541L360.187 287.721L366.357 284.251Z" fill="#263238"/>
<path d="M361.767 296.541L353.907 293.961L352.007 286.981L360.847 291.451L361.767 296.541Z" fill="black"/>
<path d="M353.587 276.171V274.521C352.517 275.041 350.167 283.651 346.987 289.521C344.087 294.911 338.337 297.911 336.467 300.261C333.967 303.391 338.827 307.441 346.617 305.771C350.487 304.941 356.347 302.471 357.937 299.861C359.527 297.251 360.057 292.451 361.357 290.531C362.657 288.611 365.747 286.401 366.357 284.221C366.865 282.253 366.865 280.188 366.357 278.221C365.747 276.221 365.207 273.831 364.527 274.051V275.561C364.007 276.621 362.117 277.861 358.187 278.081C356.267 278.171 354.447 277.881 353.587 276.171Z" fill="#37474F"/>
<path d="M356.707 132.981C356.707 132.981 354.037 162.651 353.177 188.921C352.317 215.191 353.087 249.091 353.087 249.091C353.087 249.091 355.797 251.031 361.767 251.301C367.737 251.571 369.767 249.581 369.767 249.581C369.767 249.581 373.417 237.671 373.987 229.291C374.348 224.755 374.348 220.197 373.987 215.661L379.317 180.601C379.317 180.601 386.077 215.121 386.847 219.291C387.617 223.461 394.087 260.351 394.087 260.351C394.087 260.351 396.627 262.691 403.147 262.571C408.917 262.461 410.587 260.391 410.587 260.391C410.587 260.391 411.977 237.771 411.657 228.111C411.387 219.591 409.437 212.811 409.047 207.281C408.657 201.751 408.437 170.281 408.047 158.281C407.657 146.281 406.657 135.981 396.387 121.541L356.707 132.981Z" fill="#455A64"/>
<path d="M379.357 180.631L374.917 158.631C374.917 158.631 367.187 156.631 363.577 151.891C363.577 151.891 364.577 157.131 372.577 160.481L377.297 182.361L375.657 204.981L379.357 180.631Z" fill="#37474F"/>
<path d="M300.217 127.511C303.064 127.945 305.974 127.73 308.727 126.881C307.517 126.276 306.386 125.527 305.357 124.651C304.884 124.271 304.579 123.723 304.504 123.122C304.429 122.521 304.592 121.914 304.957 121.431C305.327 121.031 306.247 121.961 308.327 122.551C310.987 123.301 312.917 123.461 315.477 124.941C316.443 125.503 317.577 125.701 318.677 125.501C324.917 124.331 339.467 117.501 346.137 113.941C347.497 108.391 349.857 100.231 352.767 90.0508C355.457 80.6708 359.767 76.5708 366.647 76.7208L365.657 97.0908C365.657 97.0908 362.377 111.161 358.317 122.651C357.607 124.651 354.757 126.981 349.537 128.921C342.777 131.431 334.617 133.801 324.647 136.531C320.607 137.681 316.48 138.501 312.307 138.981C301.767 139.881 297.727 136.981 296.307 134.901C292.267 129.161 294.657 126.401 300.217 127.511Z" fill="#FFA8A7"/>
<path d="M384.377 76.5708L393.997 77.3108C393.168 81.2205 393.403 85.2808 394.676 89.069C395.95 92.8573 398.215 96.2351 401.237 98.8508L396.947 116.131C397.087 118.271 400.627 125.471 404.057 133.211C397.607 141.851 365.967 144.801 355.647 137.211C357.237 129.071 358.427 122.891 358.747 119.801L358.227 108.631C345.287 98.0208 360.897 81.8508 366.647 76.7108L373.867 76.3908L384.377 76.5708Z" fill="#BA68C8"/>
<path d="M424.887 162.661C424.189 162.116 423.635 161.408 423.276 160.598C422.917 159.789 422.762 158.904 422.827 158.021C422.997 156.411 423.367 154.391 424.037 153.611C424.707 152.831 428.907 147.121 430.767 150.441C432.767 154.061 432.357 155.531 432.357 155.531L424.887 162.661Z" fill="#F28F8F"/>
<path d="M411.927 238.981C407.412 238.831 403.016 237.5 399.177 235.121L349.247 206.281C341.537 201.831 335.247 190.961 335.247 182.051V140.161C335.242 138.759 334.868 137.383 334.164 136.171C333.46 134.958 332.45 133.952 331.234 133.254C330.019 132.555 328.642 132.188 327.24 132.189C325.838 132.19 324.461 132.56 323.247 133.261L305.767 143.381C305.539 143.525 305.284 143.623 305.018 143.666C304.752 143.71 304.48 143.7 304.218 143.635C303.956 143.571 303.71 143.455 303.494 143.293C303.278 143.131 303.097 142.927 302.962 142.694C302.827 142.46 302.741 142.202 302.708 141.934C302.676 141.666 302.698 141.395 302.773 141.136C302.848 140.877 302.975 140.635 303.146 140.427C303.316 140.218 303.528 140.046 303.767 139.921L321.297 129.791C323.119 128.738 325.187 128.184 327.291 128.183C329.396 128.182 331.463 128.735 333.287 129.785C335.111 130.836 336.626 132.347 337.681 134.169C338.735 135.99 339.293 138.056 339.297 140.161V182.051C339.297 189.551 344.797 199.051 351.297 202.821L401.227 231.641C407.617 235.331 413.547 235.971 417.907 233.461C422.267 230.951 424.677 225.461 424.677 218.111V164.631C424.677 155.571 430.467 145.131 437.857 140.861L450.047 133.861C450.274 133.716 450.529 133.619 450.795 133.575C451.061 133.531 451.333 133.542 451.595 133.606C451.857 133.67 452.104 133.787 452.319 133.949C452.535 134.11 452.716 134.314 452.851 134.548C452.986 134.781 453.072 135.04 453.105 135.307C453.138 135.575 453.116 135.847 453.04 136.106C452.965 136.365 452.838 136.606 452.668 136.815C452.497 137.024 452.286 137.196 452.047 137.321L439.857 144.321C433.797 147.821 428.677 157.111 428.677 164.621V218.101C428.677 226.961 425.557 233.641 419.907 236.911C417.479 238.3 414.724 239.015 411.927 238.981V238.981Z" fill="#37474F"/>
<path d="M325.657 146.271V149.541C325.657 154.771 321.987 161.141 317.447 163.751L287.167 181.241L256.377 163.461V136.801L286.237 122.981C290.987 120.791 298.507 121.131 303.047 123.741L317.427 132.051C321.957 134.671 325.657 141.041 325.657 146.271Z" fill="#37474F"/>
<path d="M286.237 122.981C290.987 120.791 298.507 121.131 303.047 123.741L317.427 132.051C321.957 134.661 321.777 138.561 317.027 140.761L287.137 154.561L256.337 136.791L286.237 122.981Z" fill="#455A64"/>
<path opacity="0.15" d="M290.047 148.161C291.24 148.939 292.232 149.988 292.945 151.221C293.657 152.455 294.069 153.838 294.147 155.261V177.191L287.147 181.191L256.357 163.411V136.801L264.157 133.201L290.047 148.161Z" fill="black"/>
<path d="M253.727 132.211C254.188 131.996 254.698 131.909 255.205 131.958C255.711 132.007 256.195 132.191 256.607 132.491L286.887 149.981C288.081 150.76 289.075 151.809 289.788 153.045C290.5 154.28 290.911 155.667 290.987 157.091V183.171C291.041 183.678 290.959 184.19 290.747 184.655C290.536 185.119 290.205 185.518 289.787 185.811C289.087 186.201 286.617 187.631 285.927 188.041C285.463 188.255 284.952 188.342 284.444 188.293C283.936 188.244 283.45 188.06 283.037 187.761L252.747 170.271C251.554 169.492 250.561 168.444 249.849 167.21C249.136 165.977 248.724 164.593 248.647 163.171V137.091C248.593 136.583 248.675 136.071 248.884 135.605C249.093 135.14 249.422 134.738 249.837 134.441L253.727 132.211Z" fill="#37474F"/>
<path d="M283.037 152.201L252.747 134.721C250.487 133.411 248.647 134.471 248.647 137.091V163.171C248.724 164.593 249.136 165.977 249.849 167.21C250.561 168.444 251.554 169.492 252.747 170.271L283.037 187.761C285.297 189.071 287.137 188.011 287.137 185.391V159.311C287.059 157.887 286.647 156.502 285.935 155.267C285.223 154.032 284.23 152.981 283.037 152.201V152.201Z" fill="#455A64"/>
<path d="M247.167 182.561V187.071C247.167 188.901 247.797 190.171 248.837 190.771L251.557 192.341C252.208 192.658 252.934 192.792 253.656 192.729C254.379 192.665 255.07 192.407 255.657 191.981L280.657 177.521V159.721L277.937 158.151L252.887 172.611C251.219 173.703 249.831 175.173 248.837 176.902C247.844 178.631 247.271 180.569 247.167 182.561V182.561ZM258.497 176.981C258.592 177.306 258.646 177.642 258.657 177.981C258.585 179.317 258.199 180.618 257.53 181.777C256.861 182.936 255.928 183.921 254.807 184.651C254.495 184.833 254.158 184.968 253.807 185.051C253.719 184.724 253.672 184.389 253.667 184.051C253.739 182.715 254.125 181.414 254.794 180.255C255.463 179.096 256.396 178.112 257.517 177.381C257.827 177.211 258.156 177.077 258.497 176.981V176.981Z" fill="#BA68C8"/>
<path opacity="0.2" d="M251.417 192.241C251.469 192.287 251.526 192.327 251.587 192.361L251.487 192.301L248.857 190.771C247.807 190.191 247.187 188.921 247.187 187.081V182.571C247.252 180.567 247.834 178.614 248.877 176.901L251.597 178.471C250.564 180.188 249.986 182.139 249.917 184.141V188.651C249.843 189.819 250.219 190.971 250.967 191.871C251.101 192.012 251.252 192.136 251.417 192.241V192.241Z" fill="black"/>
<path opacity="0.5" d="M280.657 159.721L255.657 174.181C253.96 175.238 252.563 176.711 251.597 178.461L248.877 176.891C249.842 175.144 251.236 173.671 252.927 172.611L277.977 158.151L280.657 159.721Z" fill="white"/>
<path opacity="0.2" d="M258.657 177.981C258.655 177.62 258.608 177.26 258.517 176.911C260.167 176.461 261.377 177.491 261.377 179.551C261.305 180.886 260.92 182.185 260.253 183.344C259.586 184.503 258.655 185.488 257.537 186.221C255.757 187.221 254.237 186.711 253.817 185.051C254.17 184.974 254.508 184.838 254.817 184.651C255.935 183.918 256.865 182.932 257.532 181.773C258.199 180.615 258.584 179.316 258.657 177.981V177.981Z" fill="black"/>
<path d="M224.077 169.221V173.741C224.077 175.561 224.707 176.841 225.747 177.431L228.467 179.011C229.118 179.321 229.841 179.45 230.559 179.383C231.277 179.316 231.964 179.056 232.547 178.631L257.547 164.161V146.391L254.827 144.811L229.827 159.271C228.155 160.362 226.763 161.831 225.764 163.559C224.765 165.288 224.187 167.227 224.077 169.221V169.221ZM235.407 163.611C235.498 163.96 235.545 164.32 235.547 164.681C235.474 166.017 235.088 167.317 234.419 168.476C233.75 169.635 232.818 170.62 231.697 171.351C231.38 171.523 231.044 171.657 230.697 171.751C230.601 171.409 230.554 171.056 230.557 170.701C230.628 169.366 231.013 168.066 231.681 166.907C232.348 165.749 233.278 164.763 234.397 164.031C234.712 163.844 235.052 163.703 235.407 163.611V163.611Z" fill="#BA68C8"/>
<path opacity="0.2" d="M228.587 179.081H228.537H228.467L225.747 177.491C224.697 176.901 224.077 175.631 224.077 173.791V169.281C224.087 168.317 224.239 167.36 224.527 166.441C224.828 165.457 225.24 164.511 225.757 163.621L228.477 165.181C228.219 165.626 227.988 166.087 227.787 166.561C227.166 167.905 226.826 169.361 226.787 170.841V175.351C226.701 176.512 227.059 177.662 227.787 178.571C228.022 178.785 228.293 178.958 228.587 179.081V179.081Z" fill="black"/>
<path opacity="0.5" d="M257.577 146.391L232.577 160.851C230.878 161.905 229.48 163.379 228.517 165.131L225.797 163.571C226.745 161.822 228.121 160.343 229.797 159.271L254.797 144.811L257.577 146.391Z" fill="white"/>
<path opacity="0.2" d="M235.537 164.671C235.538 164.313 235.495 163.957 235.407 163.611V163.611C237.047 163.151 238.267 164.191 238.267 166.251C238.195 167.586 237.81 168.885 237.143 170.044C236.476 171.203 235.545 172.188 234.427 172.921C232.637 173.921 231.127 173.411 230.707 171.741C231.061 171.666 231.399 171.531 231.707 171.341C232.824 170.608 233.754 169.623 234.419 168.464C235.085 167.305 235.467 166.005 235.537 164.671V164.671Z" fill="black"/>
<path d="M231.657 152.531C231.323 152.532 230.999 152.421 230.737 152.216C230.474 152.011 230.287 151.724 230.207 151.401L226.207 135.721C226.107 135.335 226.165 134.925 226.368 134.582C226.57 134.239 226.901 133.99 227.287 133.891C227.673 133.791 228.082 133.849 228.425 134.052C228.768 134.254 229.017 134.585 229.117 134.971L233.117 150.661C233.168 150.851 233.18 151.05 233.153 151.245C233.126 151.441 233.06 151.628 232.96 151.798C232.859 151.968 232.725 152.115 232.567 152.233C232.408 152.35 232.228 152.434 232.037 152.481C231.912 152.513 231.785 152.53 231.657 152.531V152.531Z" fill="#E0E0E0"/>
<path d="M220.397 159.071C220.059 159.072 219.732 158.959 219.467 158.751L204.577 146.981C204.412 146.862 204.274 146.712 204.169 146.538C204.065 146.364 203.996 146.172 203.968 145.971C203.941 145.77 203.954 145.566 204.007 145.37C204.06 145.175 204.152 144.992 204.278 144.833C204.404 144.674 204.56 144.543 204.738 144.446C204.916 144.349 205.112 144.29 205.314 144.271C205.516 144.252 205.719 144.274 205.912 144.336C206.105 144.398 206.284 144.498 206.437 144.631L221.327 156.391C221.638 156.639 221.839 156.999 221.886 157.394C221.932 157.789 221.821 158.187 221.577 158.501C221.437 158.68 221.258 158.825 221.053 158.923C220.849 159.022 220.624 159.073 220.397 159.071V159.071Z" fill="#E0E0E0"/>
<path d="M199.877 173.431C199.479 173.445 199.091 173.301 198.8 173.03C198.508 172.759 198.336 172.384 198.322 171.986C198.307 171.588 198.451 171.201 198.722 170.909C198.993 170.617 199.369 170.445 199.767 170.431L217.177 169.081C217.373 169.064 217.571 169.087 217.759 169.148C217.946 169.209 218.12 169.306 218.27 169.434C218.42 169.563 218.543 169.72 218.631 169.896C218.72 170.072 218.773 170.264 218.787 170.461C218.814 170.857 218.685 171.247 218.427 171.549C218.169 171.85 217.802 172.038 217.407 172.071L199.997 173.421L199.877 173.431Z" fill="#E0E0E0"/>
<path d="M438.497 146.341C438.157 142.646 437.61 138.974 436.857 135.341C434.582 126.817 431.549 118.514 427.797 110.531C426.127 107.341 422.357 102.691 419.687 98.7608C415.907 93.2108 413.247 90.1008 410.377 86.3308C404.057 78.0608 401.377 77.5808 393.997 77.3308C392.997 79.9608 390.717 90.7408 398.107 99.4508L413.947 116.151C414.847 117.601 424.527 134.151 426.137 140.261C426.415 141.347 426.28 142.499 425.757 143.491C424.491 146.291 423.562 149.232 422.987 152.251C422.517 154.371 421.257 156.051 421.687 156.381C422.218 156.736 422.853 156.901 423.49 156.85C424.127 156.8 424.728 156.535 425.197 156.101C426.327 154.887 427.25 153.495 427.927 151.981C428.224 151.961 428.522 152.004 428.802 152.106C429.082 152.208 429.338 152.366 429.553 152.572C429.768 152.778 429.939 153.027 430.053 153.302C430.167 153.577 430.223 153.873 430.217 154.171C430.307 155.401 429.747 157.111 429.317 159.241C429.237 159.661 429.137 160.141 428.947 161.301C428.782 162.084 428.689 162.881 428.667 163.681C430.667 164.051 432.757 162.831 436.117 159.681C439.147 156.741 439.347 152.881 438.497 146.341Z" fill="#FFA8A7"/>
<path d="M386.097 71.7108C386.157 69.7108 392.657 65.0308 395.947 60.0508C398.947 55.4308 403.257 42.7308 393.157 38.6708C393.157 38.6708 395.337 32.5808 391.377 28.9908C387.417 25.4008 382.087 27.6208 381.247 29.1208C380.739 27.2508 379.642 25.5945 378.117 24.3982C376.593 23.2018 374.724 22.5294 372.787 22.4808C370.895 22.3383 369.015 22.8842 367.493 24.0179C365.972 25.1517 364.911 26.7969 364.507 28.6508C362.908 27.959 361.121 27.8378 359.444 28.3075C357.767 28.7773 356.303 29.8094 355.297 31.2308C351.587 36.3408 356.507 41.0208 356.507 41.0208C355.869 41.4514 355.359 42.0473 355.034 42.7447C354.708 43.4422 354.577 44.215 354.657 44.9808C354.947 47.1408 357.017 47.6708 357.257 48.7508C357.303 48.9767 357.274 49.2117 357.175 49.42C357.076 49.6282 356.912 49.7984 356.707 49.9048C356.502 50.0111 356.268 50.0477 356.041 50.0091C355.813 49.9705 355.605 49.8587 355.447 49.6908C355.501 49.9727 355.61 50.2413 355.768 50.481C355.926 50.7207 356.129 50.9269 356.367 51.0876C356.605 51.2483 356.872 51.3605 357.154 51.4177C357.435 51.4749 357.725 51.4759 358.007 51.4208C360.337 51.2908 362.417 48.1208 362.417 48.1208L386.097 71.7108Z" fill="#263238"/>
<path d="M364.897 38.0308C361.897 39.3308 359.067 43.9008 359.107 56.6808C359.107 67.5108 362.467 70.2508 364.107 71.0608C365.747 71.8708 369.057 71.4508 372.247 70.9608V77.1908C372.247 77.1908 366.477 84.3508 371.647 87.9108C384.967 85.5808 385.987 76.8408 385.987 76.8408L386.227 63.2608C386.227 63.2608 388.057 65.1808 391.227 62.3608C393.887 60.0308 394.847 56.0408 392.847 53.8408C390.847 51.6408 388.287 51.4708 385.967 53.9208C385.967 53.9208 381.717 54.2008 375.327 50.1908C368.937 46.1808 366.657 42.1108 364.897 38.0308Z" fill="#FFA8A7"/>
<path d="M372.567 63.4608C372.58 63.6673 372.552 63.8745 372.485 64.0702C372.418 64.2659 372.312 64.4463 372.174 64.6008C372.037 64.7553 371.869 64.8808 371.683 64.9701C371.496 65.0594 371.293 65.1106 371.087 65.1208C370.766 65.1465 370.445 65.0757 370.165 64.9175C369.885 64.7592 369.659 64.5207 369.516 64.2328C369.373 63.9448 369.319 63.6206 369.362 63.3019C369.405 62.9832 369.542 62.6846 369.756 62.4445C369.97 62.2045 370.251 62.034 370.563 61.9552C370.874 61.8763 371.203 61.8925 371.505 62.0019C371.807 62.1112 372.07 62.3086 372.259 62.5686C372.449 62.8286 372.556 63.1394 372.567 63.4608V63.4608Z" fill="#B16668"/>
<path d="M364.337 52.9808C364.334 53.2625 364.25 53.5374 364.093 53.7715C363.936 54.0055 363.714 54.1884 363.454 54.2974C363.194 54.4064 362.908 54.4368 362.631 54.3848C362.354 54.3328 362.098 54.2007 361.896 54.0049C361.693 53.809 361.553 53.558 361.491 53.283C361.43 53.008 361.451 52.7211 361.551 52.4577C361.651 52.1943 361.826 51.9661 362.055 51.8014C362.283 51.6366 362.555 51.5425 362.837 51.5308C363.03 51.5268 363.223 51.5612 363.404 51.6321C363.584 51.7029 363.749 51.8088 363.888 51.9435C364.028 52.0783 364.139 52.2394 364.216 52.4174C364.293 52.5954 364.334 52.7869 364.337 52.9808V52.9808Z" fill="#263238"/>
<path d="M375.407 53.6408C375.42 53.8473 375.392 54.0545 375.325 54.2502C375.258 54.4459 375.152 54.6263 375.014 54.7808C374.877 54.9353 374.709 55.0608 374.523 55.1501C374.336 55.2394 374.133 55.2906 373.927 55.3008C373.508 55.3035 373.106 55.1412 372.806 54.8492C372.507 54.5572 372.335 54.159 372.327 53.7408C372.32 53.5385 372.353 53.337 372.425 53.1476C372.496 52.9583 372.604 52.7848 372.742 52.6372C372.881 52.4895 373.047 52.3706 373.231 52.2871C373.415 52.2037 373.614 52.1573 373.817 52.1508C374.019 52.1442 374.22 52.1775 374.41 52.2489C374.599 52.3202 374.773 52.4281 374.92 52.5665C375.068 52.7048 375.187 52.8709 375.27 53.0552C375.354 53.2396 375.4 53.4385 375.407 53.6408V53.6408Z" fill="#263238"/>
<path d="M363.337 47.2508L360.287 49.0408C360.396 49.247 360.546 49.4286 360.728 49.5742C360.91 49.7199 361.12 49.8265 361.345 49.8875C361.57 49.9485 361.806 49.9625 362.036 49.9286C362.267 49.8948 362.488 49.8138 362.687 49.6908C363.088 49.4454 363.379 49.0551 363.5 48.6008C363.621 48.1465 363.562 47.6631 363.337 47.2508V47.2508Z" fill="#263238"/>
<path d="M386.027 52.1608V58.1608C385.642 58.1706 385.259 58.1015 384.902 57.9578C384.545 57.8142 384.221 57.5989 383.951 57.3254C383.68 57.0518 383.468 56.7258 383.328 56.3673C383.188 56.0088 383.123 55.6254 383.137 55.2408C383.14 54.4572 383.44 53.7039 383.976 53.1324C384.512 52.561 385.245 52.2138 386.027 52.1608V52.1608Z" fill="#263238"/>
<path d="M368.277 51.5508L367.667 60.1908L363.107 59.1208L368.277 51.5508Z" fill="#F28F8F"/>
<path d="M372.287 70.9808C375.637 70.5908 382.557 68.6708 383.687 65.8508C383.239 67.2636 382.374 68.508 381.207 69.4208C379.117 71.2208 372.277 73.0808 372.277 73.0808L372.287 70.9808Z" fill="#F28F8F"/>
<path d="M412.557 4.16076C413.833 4.64783 415.029 5.32186 416.107 6.16076C417.151 6.92381 418.048 7.86895 418.757 8.95076C419.431 9.99142 419.874 11.1644 420.057 12.3908C420.237 13.6997 420.075 15.033 419.587 16.2608C419.237 17.2437 418.697 18.1478 417.997 18.9208C417.371 19.5798 416.653 20.1455 415.867 20.6008C415.101 21.0381 414.298 21.4063 413.467 21.7008L411.107 22.5508C410.412 22.8016 409.743 23.1163 409.107 23.4908C408.507 23.7922 408.004 24.2567 407.657 24.8308C407.497 25.0988 407.269 25.3197 406.997 25.4708C406.866 25.5427 406.721 25.5845 406.572 25.5931C406.423 25.6018 406.275 25.577 406.137 25.5208L403.017 24.3508C402.868 24.2959 402.733 24.2119 402.618 24.1037C402.503 23.9955 402.41 23.8653 402.347 23.7208C402.278 23.5825 402.242 23.4302 402.242 23.2758C402.242 23.1213 402.278 22.969 402.347 22.8308C402.748 21.8686 403.34 20.9977 404.087 20.2708C404.764 19.6338 405.52 19.086 406.337 18.6408C407.125 18.2176 407.948 17.8629 408.797 17.5808C409.637 17.3008 410.417 17.0308 411.147 16.7508C411.806 16.5087 412.439 16.2005 413.037 15.8308C413.55 15.5051 413.944 15.0206 414.157 14.4508C414.354 13.9517 414.426 13.4119 414.367 12.8785C414.307 12.3452 414.119 11.8344 413.817 11.3908C413.064 10.2981 411.97 9.48569 410.707 9.08076C409.606 8.64285 408.397 8.55677 407.245 8.83434C406.094 9.11191 405.057 9.7395 404.277 10.6308C404.077 10.8415 403.844 11.0173 403.587 11.1508C403.309 11.2377 403.009 11.2162 402.747 11.0908L399.427 9.84076C399.308 9.79968 399.199 9.73509 399.107 9.65089C399.014 9.56669 398.939 9.4646 398.887 9.35076C398.829 9.23407 398.799 9.10578 398.799 8.97576C398.799 8.84573 398.829 8.71744 398.887 8.60076C399.326 7.58112 400.014 6.68743 400.887 6.00076C401.858 5.19268 402.965 4.56297 404.157 4.14076C405.465 3.67844 406.839 3.42861 408.227 3.40076C409.705 3.37279 411.176 3.63085 412.557 4.16076V4.16076ZM405.437 28.0608C405.582 28.1126 405.716 28.1945 405.828 28.3014C405.94 28.4082 406.028 28.5375 406.087 28.6808C406.148 28.8228 406.18 28.9759 406.18 29.1308C406.18 29.2856 406.148 29.4387 406.087 29.5808L404.727 33.1908C404.675 33.3366 404.593 33.4699 404.486 33.5819C404.379 33.6939 404.25 33.7821 404.107 33.8408C403.965 33.9024 403.811 33.9342 403.657 33.9342C403.502 33.9342 403.349 33.9024 403.207 33.8408L399.677 32.5108C399.531 32.459 399.397 32.377 399.285 32.2701C399.173 32.1633 399.085 32.034 399.027 31.8908C398.965 31.7487 398.933 31.5956 398.933 31.4408C398.933 31.2859 398.965 31.1328 399.027 30.9908L400.387 27.3808C400.44 27.2345 400.522 27.1006 400.629 26.9872C400.735 26.8737 400.864 26.7831 401.007 26.7208C401.149 26.6613 401.302 26.6308 401.457 26.6308C401.611 26.6308 401.764 26.6613 401.907 26.7208L405.437 28.0608Z" fill="#BA68C8"/>
<path d="M414.287 47.2608C414.391 47.3631 414.474 47.4853 414.53 47.6201C414.587 47.7549 414.616 47.8996 414.616 48.0458C414.616 48.1919 414.587 48.3366 414.53 48.4714C414.474 48.6062 414.391 48.7284 414.287 48.8308L411.787 51.4708C411.686 51.5773 411.566 51.6624 411.432 51.7208C411.297 51.7793 411.153 51.8099 411.007 51.8108C410.86 51.8161 410.714 51.7923 410.577 51.7408C410.439 51.6893 410.314 51.6111 410.207 51.5108L407.657 49.0608C407.55 48.9605 407.465 48.8397 407.407 48.7056C407.348 48.5716 407.318 48.427 407.317 48.2808C407.309 48.134 407.332 47.9872 407.383 47.8495C407.435 47.7119 407.514 47.5863 407.617 47.4808L410.127 44.8508C410.336 44.6449 410.618 44.5296 410.912 44.5296C411.205 44.5296 411.487 44.6449 411.697 44.8508L414.287 47.2608ZM429.287 29.1308C430.217 30.0118 431.015 31.0222 431.657 32.1308C432.275 33.1812 432.705 34.332 432.927 35.5308C433.114 36.6799 433.056 37.8556 432.757 38.9808C432.438 40.0453 431.9 41.0317 431.179 41.8771C430.457 42.7225 429.568 43.4083 428.567 43.8908C427.784 44.2362 426.955 44.4653 426.107 44.5708C425.28 44.6637 424.447 44.6872 423.617 44.6408L421.257 44.5108C420.553 44.4727 419.847 44.4961 419.147 44.5808C418.519 44.65 417.924 44.8923 417.427 45.2808C417.191 45.4586 416.91 45.5661 416.617 45.5908C416.476 45.6065 416.334 45.5904 416.201 45.5437C416.068 45.4969 415.946 45.4207 415.847 45.3208L413.577 43.1608C413.358 42.9546 413.229 42.671 413.217 42.3708C413.202 42.223 413.224 42.074 413.28 41.9365C413.335 41.7989 413.424 41.6769 413.537 41.5808C414.233 40.888 415.064 40.3437 415.977 39.9808C416.798 39.6757 417.655 39.4774 418.527 39.3908C419.369 39.3209 420.215 39.3209 421.057 39.3908C421.89 39.4641 422.67 39.5141 423.397 39.5408C424.065 39.5744 424.736 39.5376 425.397 39.4308C425.966 39.3423 426.49 39.068 426.887 38.6508C427.237 38.2878 427.495 37.8455 427.638 37.3614C427.781 36.8773 427.804 36.3659 427.707 35.8708C427.458 34.644 426.807 33.5354 425.857 32.7208C425.058 31.9396 424.038 31.4242 422.935 31.2452C421.832 31.0662 420.701 31.2323 419.697 31.7208C419.45 31.8293 419.186 31.8936 418.917 31.9108C418.78 31.9026 418.646 31.8664 418.524 31.8044C418.402 31.7425 418.294 31.6562 418.207 31.5508L415.787 29.2408C415.612 29.0832 415.505 28.8649 415.487 28.6308C415.48 28.5071 415.5 28.3835 415.545 28.268C415.59 28.1525 415.659 28.0479 415.747 27.9608C416.503 27.2414 417.423 26.7164 418.427 26.4308C419.567 26.0897 420.758 25.951 421.947 26.0208C423.255 26.1004 424.541 26.3908 425.757 26.8808C427.057 27.3933 428.243 28.158 429.247 29.1308H429.287Z" fill="#BA68C8"/>
<g opacity="0.6">
<path opacity="0.6" d="M414.287 47.2608C414.391 47.3631 414.474 47.4853 414.53 47.6201C414.587 47.7549 414.616 47.8996 414.616 48.0458C414.616 48.1919 414.587 48.3366 414.53 48.4714C414.474 48.6062 414.391 48.7284 414.287 48.8308L411.787 51.4708C411.686 51.5773 411.566 51.6624 411.432 51.7208C411.297 51.7793 411.153 51.8099 411.007 51.8108C410.86 51.8161 410.714 51.7923 410.577 51.7408C410.439 51.6893 410.314 51.6111 410.207 51.5108L407.657 49.0608C407.55 48.9605 407.465 48.8397 407.407 48.7056C407.348 48.5716 407.318 48.427 407.317 48.2808C407.309 48.134 407.332 47.9872 407.383 47.8495C407.435 47.7119 407.514 47.5863 407.617 47.4808L410.127 44.8508C410.336 44.6449 410.618 44.5296 410.912 44.5296C411.205 44.5296 411.487 44.6449 411.697 44.8508L414.287 47.2608ZM429.287 29.1308C430.217 30.0118 431.015 31.0222 431.657 32.1308C432.275 33.1812 432.705 34.332 432.927 35.5308C433.114 36.6799 433.056 37.8556 432.757 38.9808C432.438 40.0453 431.9 41.0317 431.179 41.8771C430.457 42.7225 429.568 43.4083 428.567 43.8908C427.784 44.2362 426.955 44.4653 426.107 44.5708C425.28 44.6637 424.447 44.6872 423.617 44.6408L421.257 44.5108C420.553 44.4727 419.847 44.4961 419.147 44.5808C418.519 44.65 417.924 44.8923 417.427 45.2808C417.191 45.4586 416.91 45.5661 416.617 45.5908C416.476 45.6065 416.334 45.5904 416.201 45.5437C416.068 45.4969 415.946 45.4207 415.847 45.3208L413.577 43.1608C413.358 42.9546 413.229 42.671 413.217 42.3708C413.202 42.223 413.224 42.074 413.28 41.9365C413.335 41.7989 413.424 41.6769 413.537 41.5808C414.233 40.888 415.064 40.3437 415.977 39.9808C416.798 39.6757 417.655 39.4774 418.527 39.3908C419.369 39.3209 420.215 39.3209 421.057 39.3908C421.89 39.4641 422.67 39.5141 423.397 39.5408C424.065 39.5744 424.736 39.5376 425.397 39.4308C425.966 39.3423 426.49 39.068 426.887 38.6508C427.237 38.2878 427.495 37.8455 427.638 37.3614C427.781 36.8773 427.804 36.3659 427.707 35.8708C427.458 34.644 426.807 33.5354 425.857 32.7208C425.058 31.9396 424.038 31.4242 422.935 31.2452C421.832 31.0662 420.701 31.2323 419.697 31.7208C419.45 31.8293 419.186 31.8936 418.917 31.9108C418.78 31.9026 418.646 31.8664 418.524 31.8044C418.402 31.7425 418.294 31.6562 418.207 31.5508L415.787 29.2408C415.612 29.0832 415.505 28.8649 415.487 28.6308C415.48 28.5071 415.5 28.3835 415.545 28.268C415.59 28.1525 415.659 28.0479 415.747 27.9608C416.503 27.2414 417.423 26.7164 418.427 26.4308C419.567 26.0897 420.758 25.951 421.947 26.0208C423.255 26.1004 424.541 26.3908 425.757 26.8808C427.057 27.3933 428.243 28.158 429.247 29.1308H429.287Z" fill="white"/>
</g>
<path d="M58.4666 298.691C61.6366 300.621 65.8466 300.691 69.8166 299.301L72.8166 278.301L58.8166 274.721L58.4666 298.691Z" fill="#FFA8A7"/>
<path d="M81.0566 318.791C81.4066 319.151 81.1966 321.791 80.7666 322.381C80.3366 322.971 77.9266 324.971 73.4866 325.051C69.2566 325.121 65.4866 324.351 63.1266 322.641C60.7666 320.931 59.6366 319.141 59.5266 316.721C59.4166 314.301 59.8166 312.011 58.7766 310.101C57.7366 308.191 56.4866 306.591 56.1666 305.651C55.791 303.948 55.791 302.184 56.1666 300.481L81.0566 318.791Z" fill="#263238"/>
<path d="M70.7866 298.421C70.8063 299.333 70.9339 300.239 71.1666 301.121C71.7119 303.012 72.4807 304.831 73.4566 306.541C73.942 307.433 74.4866 308.291 75.0866 309.111C76.2766 310.701 77.7966 312.031 79.0866 313.561C80.456 315.011 81.2795 316.891 81.4166 318.881C81.4166 322.201 77.7666 323.131 74.9766 323.471C71.9448 323.841 68.8687 323.523 65.9766 322.541C64.463 322.057 63.1212 321.147 62.1119 319.919C61.1027 318.692 60.4689 317.199 60.2866 315.621C60.1766 314.691 60.2866 313.761 60.2266 312.831C59.9776 310.697 59.2009 308.659 57.9666 306.901C57.249 305.883 56.6454 304.79 56.1666 303.641C55.4066 301.551 56.2266 299.281 56.8866 297.271C57.4566 295.541 57.8866 293.451 58.5266 293.651C58.5266 294.001 58.5266 294.781 58.5266 294.781C58.7066 295.171 59.1466 295.451 59.2566 295.911C59.3604 296.385 59.5042 296.85 59.6866 297.301C59.9589 297.997 60.4413 298.591 61.0666 299.001C61.1766 297.751 61.2866 296.501 61.3866 295.261C61.3582 295.064 61.3751 294.863 61.436 294.673C61.4969 294.484 61.6002 294.31 61.7381 294.167C61.8759 294.023 62.0447 293.913 62.2316 293.844C62.4185 293.776 62.6186 293.75 62.8166 293.771C65.1624 293.342 67.5596 293.271 69.9266 293.561C70.1049 293.574 70.2788 293.623 70.4384 293.703C70.598 293.784 70.7401 293.895 70.8566 294.031C70.9787 294.296 71.0171 294.593 70.9666 294.881C70.8428 296.057 70.7827 297.238 70.7866 298.421Z" fill="#BA68C8"/>
<path opacity="0.2" d="M70.7866 298.421C70.8063 299.333 70.9339 300.239 71.1666 301.121C71.7119 303.012 72.4807 304.831 73.4566 306.541C73.942 307.433 74.4866 308.291 75.0866 309.111C76.2766 310.701 77.7966 312.031 79.0866 313.561C80.456 315.011 81.2795 316.891 81.4166 318.881C81.4166 322.201 77.7666 323.131 74.9766 323.471C71.9448 323.841 68.8687 323.523 65.9766 322.541C64.463 322.057 63.1212 321.147 62.1119 319.919C61.1027 318.692 60.4689 317.199 60.2866 315.621C60.1766 314.691 60.2866 313.761 60.2266 312.831C59.9776 310.697 59.2009 308.659 57.9666 306.901C57.249 305.883 56.6454 304.79 56.1666 303.641C55.4066 301.551 56.2266 299.281 56.8866 297.271C57.4566 295.541 57.8866 293.451 58.5266 293.651C58.5266 294.001 58.5266 294.781 58.5266 294.781C58.7066 295.171 59.1466 295.451 59.2566 295.911C59.3604 296.385 59.5042 296.85 59.6866 297.301C59.9589 297.997 60.4413 298.591 61.0666 299.001C61.1766 297.751 61.2866 296.501 61.3866 295.261C61.3582 295.064 61.3751 294.863 61.436 294.673C61.4969 294.484 61.6002 294.31 61.7381 294.167C61.8759 294.023 62.0447 293.913 62.2316 293.844C62.4185 293.776 62.6186 293.75 62.8166 293.771C65.1624 293.342 67.5596 293.271 69.9266 293.561C70.1049 293.574 70.2788 293.623 70.4384 293.703C70.598 293.784 70.7401 293.895 70.8566 294.031C70.9787 294.296 71.0171 294.593 70.9666 294.881C70.8428 296.057 70.7827 297.238 70.7866 298.421Z" fill="black"/>
<path d="M73.8666 307.261C72.6866 306.261 69.9266 306.111 68.4066 306.191C66.8667 306.242 65.3643 306.679 64.0366 307.461C63.8404 307.58 63.6091 307.629 63.3814 307.598C63.1538 307.567 62.9437 307.458 62.7866 307.291V307.291C62.6942 307.193 62.6243 307.077 62.5818 306.949C62.5392 306.822 62.5251 306.687 62.5403 306.553C62.5556 306.42 62.5999 306.292 62.6701 306.177C62.7402 306.063 62.8346 305.965 62.9466 305.891C64.4161 304.933 66.1231 304.403 67.8766 304.361C71.6566 304.301 72.6566 304.981 72.6566 304.981C72.6566 304.981 74.2966 306.181 73.8666 307.261Z" fill="#455A64"/>
<path d="M76.5166 310.801C75.0166 309.801 71.9766 309.801 70.4566 309.851C68.945 309.922 67.4789 310.391 66.2066 311.211C66.0095 311.333 65.776 311.383 65.5461 311.352C65.3163 311.321 65.1043 311.211 64.9466 311.041V311.041C64.853 310.943 64.7823 310.826 64.7395 310.698C64.6967 310.57 64.683 310.434 64.6993 310.3C64.7155 310.166 64.7614 310.038 64.8336 309.924C64.9058 309.809 65.0025 309.713 65.1166 309.641C66.5947 308.63 68.3273 308.054 70.1166 307.981C73.8466 307.911 74.7766 308.731 74.7766 308.731C75.2054 308.92 75.5852 309.205 75.8868 309.564C76.1884 309.923 76.4039 310.346 76.5166 310.801V310.801Z" fill="#455A64"/>
<path d="M66.5866 300.731C68.1659 300.542 69.7672 300.762 71.2366 301.371C71.8666 301.781 72.2366 302.831 71.8066 303.071C70.5097 302.469 69.084 302.197 67.6566 302.281C66.2591 302.343 64.8825 302.644 63.5866 303.171C63.2566 303.291 62.8766 303.471 62.5866 303.631C62.4798 303.685 62.3628 303.718 62.2429 303.725C62.1231 303.732 62.0031 303.715 61.8903 303.673C61.7776 303.632 61.6747 303.568 61.588 303.485C61.5013 303.402 61.4327 303.302 61.3866 303.191V303.191C61.3239 303.006 61.3275 302.805 61.3968 302.622C61.4662 302.44 61.5969 302.287 61.7666 302.191C63.2511 301.367 64.8944 300.869 66.5866 300.731V300.731Z" fill="#455A64"/>
<path d="M97.9266 290.801C100.367 296.911 104.187 295.031 110.007 291.511L110.887 270.651L96.0766 269.281L97.9266 290.801Z" fill="#FFA8A7"/>
<path d="M132.347 305.511C132.617 306.493 132.502 307.54 132.027 308.441C131.567 309.281 126.937 311.581 120.887 310.841C116.401 310.289 112.146 308.541 108.567 305.781C106.337 304.121 103.947 303.711 100.947 303.371C97.9466 303.031 95.6966 301.991 95.1066 300.551C94.5166 299.111 95.4166 296.731 95.4166 296.731L132.347 305.511Z" fill="#263238"/>
<path d="M108.787 286.281C109.333 286.165 109.871 286.012 110.397 285.821C110.69 285.712 111.013 285.712 111.307 285.821C111.687 285.991 111.807 286.451 111.897 286.821C111.982 287.726 112.156 288.62 112.417 289.491C112.826 290.213 113.369 290.851 114.017 291.371C115.458 292.661 117.03 293.797 118.707 294.761C120.637 295.941 122.537 296.871 124.527 297.901C126.517 298.931 129.307 299.671 130.887 300.901C133.177 302.641 133.267 306.691 130.467 308.131C128.057 309.381 121.817 310.541 115.467 308.361C111.997 307.171 108.297 303.201 103.697 302.591C100.767 302.211 96.8666 301.751 95.0966 299.421C94.4566 298.421 95.0166 295.521 95.5366 292.131C96.0066 289.131 96.4366 284.331 97.4066 284.651L97.4766 285.571L98.6566 286.981C98.9151 287.256 99.1889 287.516 99.4766 287.761C99.7924 288.13 100.126 288.484 100.477 288.821C100.952 289.228 101.543 289.476 102.167 289.531C102.462 289.549 102.757 289.483 103.017 289.341C103.517 289.061 103.587 288.401 104.017 287.991C104.482 287.513 105.04 287.135 105.657 286.881C106.513 286.576 107.409 286.394 108.317 286.341C108.474 286.331 108.631 286.311 108.787 286.281V286.281Z" fill="#BA68C8"/>
<path opacity="0.2" d="M108.787 286.281C109.333 286.165 109.871 286.012 110.397 285.821C110.69 285.712 111.013 285.712 111.307 285.821C111.687 285.991 111.807 286.451 111.897 286.821C111.982 287.726 112.156 288.62 112.417 289.491C112.826 290.213 113.369 290.851 114.017 291.371C115.458 292.661 117.03 293.797 118.707 294.761C120.637 295.941 122.537 296.871 124.527 297.901C126.517 298.931 129.307 299.671 130.887 300.901C133.177 302.641 133.267 306.691 130.467 308.131C128.057 309.381 121.817 310.541 115.467 308.361C111.997 307.171 108.297 303.201 103.697 302.591C100.767 302.211 96.8666 301.751 95.0966 299.421C94.4566 298.421 95.0166 295.521 95.5366 292.131C96.0066 289.131 96.4366 284.331 97.4066 284.651L97.4766 285.571L98.6566 286.981C98.9151 287.256 99.1889 287.516 99.4766 287.761C99.7924 288.13 100.126 288.484 100.477 288.821C100.952 289.228 101.543 289.476 102.167 289.531C102.462 289.549 102.757 289.483 103.017 289.341C103.517 289.061 103.587 288.401 104.017 287.991C104.482 287.513 105.04 287.135 105.657 286.881C106.513 286.576 107.409 286.394 108.317 286.341C108.474 286.331 108.631 286.311 108.787 286.281V286.281Z" fill="black"/>
<path d="M116.057 292.981C115.864 292.565 115.572 292.205 115.205 291.93C114.838 291.656 114.409 291.478 113.957 291.411C112.637 291.091 110.227 291.951 108.697 293.081C108.551 293.186 108.434 293.326 108.355 293.487C108.276 293.649 108.238 293.827 108.244 294.007C108.25 294.186 108.3 294.362 108.389 294.517C108.479 294.673 108.605 294.805 108.757 294.901V294.901C108.949 295.017 109.173 295.073 109.397 295.06C109.622 295.048 109.838 294.968 110.017 294.831C111.708 293.444 113.878 292.779 116.057 292.981V292.981Z" fill="#455A64"/>
<path d="M120.067 295.551C119.797 295.125 119.429 294.771 118.994 294.517C118.559 294.263 118.07 294.116 117.567 294.091C115.504 294.07 113.487 294.704 111.807 295.901C111.664 295.999 111.548 296.131 111.468 296.284C111.387 296.437 111.345 296.608 111.345 296.781C111.345 296.954 111.387 297.124 111.468 297.278C111.548 297.431 111.664 297.562 111.807 297.661V297.661C111.994 297.774 112.211 297.826 112.429 297.812C112.647 297.798 112.856 297.717 113.027 297.581C113.971 296.734 115.095 296.111 116.314 295.76C117.533 295.408 118.816 295.337 120.067 295.551V295.551Z" fill="#455A64"/>
<path d="M124.527 297.891C124.215 297.494 123.822 297.168 123.373 296.937C122.924 296.706 122.431 296.574 121.927 296.551C119.936 296.567 118 297.211 116.397 298.391C116.258 298.494 116.146 298.629 116.07 298.785C115.995 298.941 115.959 299.113 115.965 299.287C115.971 299.46 116.019 299.629 116.104 299.779C116.19 299.93 116.311 300.057 116.457 300.151V300.151C116.638 300.273 116.855 300.333 117.073 300.32C117.292 300.307 117.5 300.223 117.667 300.081C118.559 299.205 119.645 298.551 120.836 298.17C122.028 297.79 123.292 297.694 124.527 297.891V297.891Z" fill="#455A64"/>
<path d="M58.0766 242.391C58.5266 232.321 60.6666 227.081 60.9666 224.291C60.9666 224.291 61.7866 168.891 63.1366 152.081L112.737 149.971C113.467 167.971 114.127 216.331 113.737 222.731C113.367 228.861 110.877 282.031 110.877 282.031C103.877 284.221 96.4066 281.031 96.4066 281.031C96.4066 281.031 92.2466 250.781 91.5666 244.111C91.084 238.111 91.2382 232.078 92.0266 226.111L88.8566 183.041C88.8566 183.041 85.0266 216.441 83.1366 229.041C80.9766 243.451 71.6566 288.121 71.6566 288.121C64.9566 289.791 58.4366 286.901 58.4366 286.901C58.4366 286.901 57.4166 256.981 58.0766 242.391Z" fill="#455A64"/>
<path d="M88.8666 183.081L89.8066 177.141C92.6966 176.711 100.017 172.141 104.347 168.141C101.262 172.808 97.0889 176.655 92.1866 179.351L92.0366 226.131L88.8666 183.081Z" fill="#37474F"/>
<path d="M109.207 120.791C105.837 113.101 100.037 100.151 100.037 100.151L98.5666 79.1508C100.712 79.2191 102.852 79.4094 104.977 79.7208C108.097 80.2108 113.047 83.1908 115.307 88.8108C116.997 92.9808 125.777 118.421 125.777 118.421L141.077 110.361C144.997 107.871 146.387 103.741 148.887 101.361C151.387 98.9808 153.887 98.6208 156.657 96.7108C159.427 94.8008 160.517 93.2708 161.217 95.1808C161.917 97.0908 158.817 100.021 158.217 100.751C157.617 101.481 154.607 103.041 158.447 103.241C162.287 103.441 170.057 99.7008 171.917 99.0608C173.777 98.4208 173.617 100.631 172.647 102.001C171.677 103.371 171.577 107.391 169.957 109.641C168.237 112.041 167.307 113.071 163.617 114.501C160.187 115.821 153.077 116.161 149.417 118.271C145.757 120.381 136.897 128.391 130.987 132.501C123.057 138.021 118.597 138.381 115.487 133.981C112.377 129.581 110.397 123.501 109.207 120.791Z" fill="#FFA8A7"/>
<path d="M96.4966 78.7008C101.697 78.3008 107.827 78.6208 111.217 81.7008C113.927 84.1708 114.947 85.7008 117.967 94.2408C119.967 99.9708 124.247 113.171 124.247 113.171C118.37 114.497 113.097 117.727 109.247 122.361L99.4966 100.451L96.4966 78.7008Z" fill="#E0E0E0"/>
<path d="M125.777 118.371C123.141 119.304 120.874 121.056 119.307 123.371C119.307 123.371 119.677 119.371 125.307 116.981L125.777 118.371Z" fill="#F28F8F"/>
<path d="M84.0466 77.7608C81.5836 77.6592 79.1194 77.9289 76.7366 78.5608C72.1666 79.7708 63.9766 82.0708 63.9766 82.0708C61.3766 83.4208 60.3666 87.9208 59.7766 90.5108C57.8966 98.8008 62.7766 117.511 63.5266 124.801C64.2766 132.091 62.6566 154.421 62.6566 154.421C68.2466 160.901 98.5366 165.201 113.287 154.421C113.287 154.421 113.927 103.151 112.477 95.7908C110.277 84.6508 107.007 79.3608 95.4766 78.6908L84.0466 77.7608Z" fill="#F5F5F5"/>
<path d="M90.5166 50.2608L87.2266 52.0708C86.999 51.6178 86.9519 51.0953 87.0949 50.6089C87.2378 50.1225 87.5601 49.7086 87.9966 49.4508C88.214 49.3327 88.4532 49.2599 88.6995 49.2369C88.9459 49.2139 89.1943 49.241 89.4299 49.3167C89.6654 49.3925 89.8832 49.5152 90.07 49.6774C90.2568 49.8397 90.4087 50.0381 90.5166 50.2608V50.2608Z" fill="#263238"/>
<path d="M104.827 51.5808L101.827 49.2708C101.968 49.0679 102.148 48.8958 102.358 48.765C102.567 48.6342 102.801 48.5475 103.046 48.5101C103.29 48.4726 103.539 48.4853 103.778 48.5473C104.017 48.6093 104.241 48.7194 104.437 48.8708C104.834 49.1882 105.096 49.6451 105.168 50.1486C105.24 50.652 105.118 51.1641 104.827 51.5808Z" fill="#263238"/>
<path d="M75.3966 39.7908C75.3966 39.7908 71.8566 40.2808 70.5566 42.9808C69.4366 45.3008 69.8366 50.9008 71.3466 56.9808C72.2 60.9256 73.4739 64.7676 75.1466 68.4408C75.7375 69.4815 76.7032 70.2576 77.8466 70.6108L77.6566 63.3508L77.3966 58.3508C77.3966 58.3508 80.6266 53.9308 80.9866 50.3508C81.4466 45.6908 80.4666 43.7808 80.4666 43.7808L75.3966 39.7908Z" fill="#263238"/>
<path d="M81.1066 46.7908C81.1199 50.3739 82.5539 53.8055 85.0942 56.3327C87.6344 58.8598 91.0734 60.2761 94.6566 60.2708C102.117 60.2708 107.717 54.1208 107.657 46.6508C107.597 39.1808 101.997 33.2008 94.5266 33.2308C90.9513 33.2572 87.532 34.6988 85.017 37.24C82.5019 39.7813 81.0959 43.2154 81.1066 46.7908V46.7908Z" fill="#263238"/>
<path d="M77.6566 57.5008C76.4366 58.5608 75.4466 55.8308 74.4266 54.7608C73.4066 53.6908 70.0566 52.2508 68.4266 55.7608C66.7966 59.2708 69.8866 64.3608 72.4266 65.3408C73.1934 65.6311 74.0355 65.6548 74.8174 65.4081C75.5993 65.1613 76.2753 64.6586 76.7366 63.9808V79.9808C80.5866 86.9208 87.3766 86.7008 91.0066 86.3108C94.6366 85.9208 95.4266 82.1508 92.7766 79.1108V74.1108C94.7935 74.4272 96.8388 74.5245 98.8766 74.4008C102.197 73.8808 103.877 71.4008 104.877 67.7708C106.477 61.9808 107.127 52.2608 104.877 41.0308C101.157 38.1508 88.2566 38.6308 80.4466 43.5808C81.0566 53.6508 78.8166 56.4508 77.6566 57.5008Z" fill="#FFA8A7"/>
<path d="M105.537 35.4708C106.039 33.3861 106.264 31.2443 106.207 29.1008C106.207 28.2608 105.997 27.2408 105.207 26.9208C104.417 26.6008 103.637 27.1808 102.957 27.6408C100.077 29.5808 96.4966 30.1308 93.0266 30.3208C87.0266 30.6508 77.8566 30.2608 74.8066 36.8308C73.9566 38.6508 73.8066 40.5708 75.4866 41.8308C76.9845 42.8341 78.6972 43.4712 80.4866 43.6908C83.4866 44.2208 86.4866 44.8808 89.5666 45.2908C92.6466 45.7008 96.3066 46.1008 99.3566 45.1608C101.927 44.3708 104.537 43.6908 106.447 41.6508C108.102 39.8719 109.036 37.5405 109.067 35.1108C109.067 34.7708 108.997 34.3408 108.657 34.2508C108.487 34.2294 108.315 34.2645 108.167 34.3508L105.537 35.4708Z" fill="#263238"/>
<path d="M92.7466 74.2208C92.7466 74.2208 85.3266 72.7508 82.7466 71.3808C81.2184 70.589 79.9639 69.3555 79.1466 67.8408C79.5267 69.354 80.2068 70.7754 81.1466 72.0208C83.0566 74.4408 92.7266 76.1908 92.7266 76.1908L92.7466 74.2208Z" fill="#F28F8F"/>
<path d="M91.2566 55.1708C91.2468 55.4987 91.1406 55.8166 90.9512 56.0845C90.7618 56.3525 90.4977 56.5588 90.1918 56.6775C89.8859 56.7963 89.5518 56.8223 89.2312 56.7523C88.9107 56.6824 88.6178 56.5195 88.3892 56.2841C88.1606 56.0487 88.0065 55.7511 87.946 55.4286C87.8855 55.1061 87.9214 54.7729 88.0491 54.4707C88.1768 54.1684 88.3908 53.9105 88.6642 53.7291C88.9377 53.5477 89.2585 53.4509 89.5866 53.4508C90.0358 53.4587 90.4635 53.644 90.7764 53.9663C91.0893 54.2886 91.262 54.7216 91.2566 55.1708V55.1708Z" fill="#263238"/>
<path d="M93.6566 66.7208C93.6647 67.1434 93.5051 67.5521 93.2128 67.8575C92.9205 68.1629 92.5192 68.3403 92.0966 68.3508C91.6714 68.3429 91.2665 68.167 90.9704 67.8616C90.6744 67.5562 90.5113 67.1461 90.5166 66.7208C90.5126 66.5119 90.5498 66.3044 90.6261 66.11C90.7023 65.9155 90.8162 65.738 90.961 65.5876C91.1059 65.4372 91.279 65.3167 91.4704 65.2332C91.6618 65.1497 91.8678 65.1047 92.0766 65.1008C92.5001 65.1086 92.9035 65.2831 93.1992 65.5864C93.495 65.8896 93.6593 66.2972 93.6566 66.7208V66.7208Z" fill="#B16668"/>
<path d="M89.1566 49.9208L85.7166 52.0908C85.4328 51.6185 85.343 51.0547 85.4661 50.5177C85.5891 49.9807 85.9155 49.5123 86.3766 49.2108C86.6047 49.071 86.8585 48.9783 87.1231 48.9384C87.3876 48.8984 87.6575 48.9119 87.9167 48.9781C88.1759 49.0443 88.4192 49.1619 88.6322 49.3238C88.8452 49.4857 89.0235 49.6887 89.1566 49.9208Z" fill="#263238"/>
<path d="M101.297 47.8008L104.917 49.4208C104.819 49.6584 104.674 49.8737 104.491 50.0538C104.308 50.2339 104.09 50.3749 103.851 50.4684C103.611 50.5618 103.355 50.6058 103.099 50.5976C102.842 50.5895 102.589 50.5293 102.357 50.4208C101.884 50.1961 101.513 49.8022 101.317 49.3171C101.12 48.832 101.113 48.2909 101.297 47.8008V47.8008Z" fill="#263238"/>
<path d="M103.207 54.6708C103.195 54.9859 103.091 55.2907 102.907 55.5473C102.724 55.8038 102.469 56.0008 102.175 56.1138C101.88 56.2268 101.559 56.2509 101.251 56.1829C100.943 56.115 100.662 55.9581 100.442 55.7317C100.223 55.5053 100.074 55.2194 100.016 54.9095C99.9572 54.5996 99.9909 54.2793 100.113 53.9884C100.235 53.6976 100.439 53.4489 100.701 53.2733C100.963 53.0977 101.271 53.0029 101.587 53.0008C102.022 53.0086 102.438 53.1887 102.741 53.5016C103.045 53.8145 103.212 54.2349 103.207 54.6708V54.6708Z" fill="#263238"/>
<path d="M95.0266 51.8508L95.6266 62.9708L100.897 61.5708L95.0266 51.8508Z" fill="#F28F8F"/>
<path d="M1.65662 97.6508C3.38662 98.5808 10.4366 103.541 14.2666 103.971C15.8866 104.151 16.3266 103.891 16.2666 103.471C16.1866 102.891 15.1566 102.021 14.9066 101.551C14.4766 100.731 11.9066 97.3308 12.9066 95.5508C13.9066 93.7708 14.7766 95.4708 17.1566 97.8008C19.5366 100.131 21.9766 100.941 24.0666 103.651C26.1566 106.361 26.8566 110.651 30.3166 113.761L44.0966 123.171C44.0966 123.171 50.5166 93.3808 53.3366 89.8708C56.3366 86.1808 69.2066 94.2208 66.5066 105.951C63.8066 117.681 57.6566 138.041 53.3766 142.031C50.6166 144.621 44.8066 142.181 37.5566 135.731C31.8266 130.631 23.9766 122.981 20.6566 120.271C17.3366 117.561 10.4366 116.101 7.26662 114.271C3.85662 112.271 3.10662 111.101 1.79662 108.451C0.566617 105.961 1.11662 101.971 0.386617 100.451C-0.343383 98.9308 -0.103383 96.7208 1.65662 97.6508Z" fill="#FFA8A7"/>
<path d="M63.9766 82.0708C68.3966 84.8308 68.6166 88.8508 68.8366 93.4508C68.8992 98.8353 68.0471 104.191 66.3166 109.291C64.4466 115.081 61.4766 125.651 61.4766 125.651C61.4766 125.651 49.9366 125.921 43.9966 120.791C43.9966 120.791 46.7066 109.391 48.6166 100.791C50.5266 92.1908 52.8466 83.0408 63.9766 82.0708Z" fill="#E0E0E0"/>
<path d="M44.0466 123.191C47.1966 124.941 49.0466 128.701 49.6166 130.191C49.4802 128.456 48.9341 126.778 48.0232 125.295C47.1123 123.812 45.8625 122.567 44.3766 121.661L44.0466 123.191Z" fill="#F28F8F"/>
<path d="M163.767 339.321L240.947 383.881V400.301L163.767 355.741V339.321Z" fill="#BA68C8"/>
<path opacity="0.35" d="M163.767 339.321L240.947 383.881V400.301L163.767 355.741V339.321Z" fill="black"/>
<path d="M318.127 339.321L240.947 383.881V400.301L318.127 355.741V339.321Z" fill="#BA68C8"/>
<path opacity="0.2" d="M318.127 339.321L240.947 383.881V400.301L318.127 355.741V339.321Z" fill="black"/>
<path d="M318.127 339.321L240.947 294.771L163.767 339.321L240.947 383.881L318.127 339.321Z" fill="#BA68C8"/>
<path opacity="0.15" d="M318.127 339.321L240.947 294.771L163.767 339.321L240.947 383.881L318.127 339.321Z" fill="black"/>
<path opacity="0.1" d="M240.947 383.881V379.191L171.887 339.321H163.767L240.947 383.881Z" fill="black"/>
<path opacity="0.1" d="M240.947 294.771V299.461L310.007 339.321H318.127L240.947 294.771Z" fill="black"/>
<path d="M318.127 339.321H310.007L240.947 379.191V383.881L318.127 339.321Z" fill="#BA68C8"/>
<path d="M240.947 294.771V299.461L171.887 339.321H163.767L240.947 294.771Z" fill="#BA68C8"/>
<path d="M241.227 319.981L274.387 339.121C276.867 340.561 276.867 342.881 274.387 344.311L249.657 358.631C248.263 359.343 246.721 359.714 245.157 359.714C243.592 359.714 242.05 359.343 240.657 358.631L207.497 339.491C205.017 338.051 205.017 335.731 207.497 334.301L232.237 319.981C233.629 319.271 235.169 318.9 236.732 318.9C238.294 318.9 239.835 319.271 241.227 319.981V319.981Z" fill="#37474F"/>
<path d="M249.657 358.631L273.567 344.821L241.227 326.151C239.831 325.447 238.29 325.081 236.727 325.081C235.164 325.081 233.622 325.447 232.227 326.151L208.317 339.981L240.657 358.631C242.05 359.343 243.592 359.714 245.157 359.714C246.721 359.714 248.263 359.343 249.657 358.631V358.631Z" fill="#455A64"/>
<path d="M221.197 339.351L235.707 330.981C235.977 330.845 236.275 330.775 236.577 330.775C236.879 330.775 237.177 330.845 237.447 330.981L239.227 331.981C239.707 332.251 239.707 332.701 239.227 332.981L224.717 341.351C224.448 341.486 224.152 341.557 223.852 341.557C223.551 341.557 223.255 341.486 222.987 341.351L221.207 340.351C221.103 340.315 221.012 340.249 220.948 340.16C220.884 340.071 220.848 339.964 220.847 339.854C220.846 339.745 220.879 339.637 220.942 339.547C221.004 339.457 221.093 339.388 221.197 339.351V339.351Z" fill="#263238"/>
<path d="M242.867 351.881L257.377 343.511C257.645 343.375 257.941 343.305 258.242 343.305C258.542 343.305 258.838 343.375 259.107 343.511L260.897 344.511C261.377 344.781 261.377 345.231 260.897 345.511L246.387 353.881C246.118 354.016 245.822 354.087 245.522 354.087C245.221 354.087 244.925 354.016 244.657 353.881L242.877 352.881C242.773 352.845 242.682 352.779 242.618 352.69C242.554 352.601 242.518 352.494 242.517 352.384C242.516 352.275 242.549 352.167 242.612 352.077C242.674 351.987 242.763 351.918 242.867 351.881V351.881Z" fill="#263238"/>
<path d="M207.417 371.751C207.335 370.233 206.896 368.756 206.134 367.44C205.373 366.125 204.312 365.008 203.037 364.181C202.596 363.859 202.076 363.661 201.533 363.608C200.989 363.555 200.441 363.65 199.947 363.881L198.057 364.981C197.612 365.294 197.259 365.721 197.034 366.217C196.809 366.713 196.72 367.259 196.777 367.801C196.859 369.318 197.298 370.795 198.057 372.112C198.817 373.429 199.875 374.549 201.147 375.381C201.59 375.703 202.111 375.9 202.656 375.953C203.201 376.006 203.75 375.912 204.247 375.681L206.127 374.551C206.569 374.239 206.921 373.815 207.147 373.324C207.374 372.832 207.467 372.29 207.417 371.751V371.751Z" fill="#BA68C8"/>
<path opacity="0.1" d="M201.147 365.311C202.422 366.138 203.483 367.255 204.244 368.57C205.006 369.886 205.445 371.363 205.527 372.881C205.527 375.671 203.527 376.801 201.147 375.411C199.875 374.579 198.817 373.459 198.057 372.142C197.298 370.825 196.86 369.348 196.777 367.831C196.777 365.051 198.737 363.921 201.147 365.311Z" fill="black"/>
<path d="M150.417 397.251C145.537 397.336 140.717 396.169 136.417 393.861L85.2166 364.301C81.1066 361.921 78.8366 358.641 78.8366 355.061C78.8366 351.481 81.1066 348.211 85.2166 345.831L144.537 311.581C151.037 307.831 156.537 298.321 156.537 290.811V103.081C156.537 102.55 156.747 102.042 157.122 101.667C157.497 101.291 158.006 101.081 158.537 101.081C159.067 101.081 159.576 101.291 159.951 101.667C160.326 102.042 160.537 102.55 160.537 103.081V290.811C160.537 299.871 154.397 310.521 146.537 315.051L87.2166 349.301C84.3966 350.931 82.8366 352.971 82.8366 355.061C82.8366 357.151 84.3966 359.201 87.2166 360.831L138.417 390.391C145.027 394.211 155.787 394.211 162.417 390.391L200.167 368.611C200.394 368.466 200.649 368.369 200.915 368.325C201.181 368.281 201.453 368.292 201.715 368.356C201.977 368.42 202.224 368.537 202.439 368.699C202.655 368.86 202.836 369.064 202.971 369.298C203.106 369.531 203.192 369.79 203.225 370.057C203.258 370.325 203.236 370.597 203.16 370.856C203.085 371.115 202.958 371.356 202.788 371.565C202.617 371.774 202.406 371.946 202.167 372.071L164.417 393.861C160.117 396.171 155.297 397.338 150.417 397.251V397.251Z" fill="#37474F"/>
<path d="M60.5766 31.2908C60.547 31.1552 60.5459 31.0149 60.5735 30.8789C60.601 30.7429 60.6566 30.6141 60.7366 30.5008C60.812 30.3822 60.9115 30.2808 61.0287 30.2033C61.1458 30.1258 61.278 30.0738 61.4166 30.0508L66.2766 29.1108C66.4137 29.0797 66.5558 29.0779 66.6937 29.1055C66.8315 29.133 66.962 29.1894 67.0766 29.2708C67.3089 29.4307 67.4702 29.6744 67.5266 29.9508L68.2766 33.8508C68.3048 33.987 68.3042 34.1277 68.275 34.2637C68.2457 34.3997 68.1884 34.5282 68.1066 34.6408C68.0334 34.7601 67.9359 34.8627 67.8205 34.9419C67.705 35.0211 67.5743 35.0753 67.4366 35.1008L62.5666 36.0308C62.431 36.0604 62.2908 36.0614 62.1548 36.0339C62.0188 36.0063 61.89 35.9508 61.7766 35.8708C61.6581 35.7954 61.5567 35.6959 61.4792 35.5787C61.4016 35.4615 61.3496 35.3294 61.3266 35.1908L60.5766 31.2908ZM56.5166 10.2308C56.489 10.0935 56.4889 9.95208 56.5163 9.81475C56.5436 9.67742 56.5979 9.54687 56.676 9.43065C56.7541 9.31442 56.8545 9.21482 56.9713 9.1376C57.0881 9.06038 57.2191 9.00708 57.3566 8.98076L62.2266 8.04076C62.3629 8.01258 62.5035 8.01314 62.6396 8.04241C62.7756 8.07168 62.904 8.12902 63.0166 8.21076C63.1341 8.28504 63.2347 8.38299 63.3122 8.49835C63.3897 8.61371 63.4423 8.74395 63.4666 8.88076L66.6566 25.5508C66.6848 25.687 66.6842 25.8277 66.655 25.9637C66.6257 26.0997 66.5684 26.2282 66.4866 26.3408C66.4123 26.4582 66.3144 26.5589 66.199 26.6364C66.0837 26.7138 65.9534 26.7664 65.8166 26.7908L60.9466 27.7308C60.8104 27.7589 60.6697 27.7584 60.5337 27.7291C60.3976 27.6998 60.2692 27.6425 60.1566 27.5608C60.0392 27.4865 59.9385 27.3885 59.861 27.2732C59.7835 27.1578 59.731 27.0276 59.7066 26.8908L56.5166 10.2308Z" fill="#BA68C8"/>
<path d="M52.4566 47.6108C52.3631 47.5071 52.291 47.3861 52.2444 47.2545C52.1978 47.123 52.1776 46.9835 52.1851 46.8441C52.1925 46.7048 52.2274 46.5682 52.2877 46.4424C52.348 46.3165 52.4326 46.2038 52.5366 46.1108L56.2266 42.8008C56.3296 42.7059 56.4514 42.6338 56.584 42.589C56.7167 42.5442 56.8572 42.5278 56.9966 42.5408C57.1352 42.5437 57.2717 42.5755 57.3974 42.634C57.523 42.6926 57.6352 42.7766 57.7266 42.8808L60.3766 45.8808C60.4701 45.9844 60.5422 46.1054 60.5888 46.237C60.6354 46.3685 60.6556 46.508 60.6482 46.6474C60.6407 46.7867 60.6059 46.9233 60.5455 47.0491C60.4852 47.175 60.4006 47.2877 60.2966 47.3808L56.6566 50.6508C56.5536 50.7456 56.4319 50.8177 56.2992 50.8625C56.1666 50.9073 56.026 50.9237 55.8866 50.9108C55.748 50.9078 55.6115 50.876 55.4859 50.8175C55.3602 50.759 55.2481 50.6749 55.1566 50.5708L52.4566 47.6108ZM38.1466 31.6108C37.9584 31.3998 37.8614 31.123 37.8766 30.8408C37.8808 30.7014 37.9142 30.5645 37.9744 30.4388C38.0347 30.313 38.1206 30.2013 38.2266 30.1108L41.9166 26.8008C42.0188 26.7042 42.1401 26.6302 42.2728 26.5837C42.4055 26.5371 42.5465 26.5191 42.6866 26.5308C42.826 26.535 42.9629 26.5683 43.0886 26.6286C43.2143 26.6889 43.3261 26.7748 43.4166 26.8808L54.7366 39.5408C54.8314 39.6438 54.9036 39.7655 54.9484 39.8982C54.9932 40.0308 55.0096 40.1714 54.9966 40.3108C54.9936 40.4494 54.9619 40.5858 54.9033 40.7115C54.8448 40.8372 54.7608 40.9493 54.6566 41.0408L50.9566 44.3508C50.8548 44.4443 50.7347 44.5157 50.6039 44.5604C50.4731 44.6052 50.3344 44.6223 50.1966 44.6108C50.0563 44.6092 49.9179 44.5781 49.7904 44.5195C49.6629 44.4609 49.5492 44.3762 49.4566 44.2708L38.1466 31.6108Z" fill="#BA68C8"/>
<g opacity="0.6">
<path opacity="0.6" d="M52.4566 47.6108C52.3631 47.5071 52.291 47.3861 52.2444 47.2545C52.1978 47.123 52.1776 46.9835 52.1851 46.8441C52.1925 46.7048 52.2274 46.5682 52.2877 46.4424C52.348 46.3165 52.4326 46.2038 52.5366 46.1108L56.2266 42.8008C56.3296 42.7059 56.4514 42.6338 56.584 42.589C56.7167 42.5442 56.8572 42.5278 56.9966 42.5408C57.1352 42.5437 57.2717 42.5755 57.3974 42.634C57.523 42.6926 57.6352 42.7766 57.7266 42.8808L60.3766 45.8808C60.4701 45.9844 60.5422 46.1054 60.5888 46.237C60.6354 46.3685 60.6556 46.508 60.6482 46.6474C60.6407 46.7867 60.6059 46.9233 60.5455 47.0491C60.4852 47.175 60.4006 47.2877 60.2966 47.3808L56.6566 50.6508C56.5536 50.7456 56.4319 50.8177 56.2992 50.8625C56.1666 50.9073 56.026 50.9237 55.8866 50.9108C55.748 50.9078 55.6115 50.876 55.4859 50.8175C55.3602 50.759 55.2481 50.6749 55.1566 50.5708L52.4566 47.6108ZM38.1466 31.6108C37.9584 31.3998 37.8614 31.123 37.8766 30.8408C37.8808 30.7014 37.9142 30.5645 37.9744 30.4388C38.0347 30.313 38.1206 30.2013 38.2266 30.1108L41.9166 26.8008C42.0188 26.7042 42.1401 26.6302 42.2728 26.5837C42.4055 26.5371 42.5465 26.5191 42.6866 26.5308C42.826 26.535 42.9629 26.5683 43.0886 26.6286C43.2143 26.6889 43.3261 26.7748 43.4166 26.8808L54.7366 39.5408C54.8314 39.6438 54.9036 39.7655 54.9484 39.8982C54.9932 40.0308 55.0096 40.1714 54.9966 40.3108C54.9936 40.4494 54.9619 40.5858 54.9033 40.7115C54.8448 40.8372 54.7608 40.9493 54.6566 41.0408L50.9566 44.3508C50.8548 44.4443 50.7347 44.5157 50.6039 44.5604C50.4731 44.6052 50.3344 44.6223 50.1966 44.6108C50.0563 44.6092 49.9179 44.5781 49.7904 44.5195C49.6629 44.4609 49.5492 44.3762 49.4566 44.2708L38.1466 31.6108Z" fill="white"/>
</g>
<path d="M147.657 0.98076C149.369 0.873438 151.063 1.38836 152.427 2.43076C153.01 2.96224 153.466 3.61873 153.761 4.3512C154.055 5.08366 154.18 5.87317 154.127 6.66076C154.178 7.45253 154.051 8.24568 153.757 8.98258C153.463 9.71947 153.009 10.3816 152.427 10.9208C151.072 11.9851 149.376 12.5185 147.657 12.4208H143.657V18.0708C143.659 18.1618 143.642 18.2524 143.608 18.3367C143.573 18.421 143.522 18.4973 143.457 18.5608C143.394 18.6244 143.319 18.6749 143.237 18.7092C143.154 18.7436 143.066 18.7611 142.977 18.7608H140.927C140.836 18.7621 140.745 18.7452 140.661 18.711C140.577 18.6768 140.5 18.626 140.436 18.5617C140.371 18.4973 140.321 18.4207 140.286 18.3364C140.252 18.2521 140.235 18.1617 140.237 18.0708V1.69076C140.237 1.60061 140.255 1.51137 140.289 1.42821C140.324 1.34505 140.375 1.26963 140.439 1.20636C140.504 1.14308 140.58 1.0932 140.663 1.05963C140.747 1.02605 140.836 1.00943 140.927 1.01076L147.657 0.98076ZM143.657 9.25076H147.587C148.396 9.29267 149.2 9.09436 149.897 8.68076C150.202 8.45132 150.442 8.14603 150.593 7.79519C150.744 7.44436 150.8 7.06017 150.757 6.68076C150.805 6.30094 150.751 5.91501 150.6 5.56323C150.449 5.21144 150.206 4.90669 149.897 4.68076C149.193 4.28721 148.392 4.10005 147.587 4.14076H143.657V9.25076Z" fill="#455A64"/>
<path d="M156.417 8.82076C156.506 8.41644 156.665 8.03072 156.887 7.68076C157.149 7.24376 157.487 6.85758 157.887 6.54076C158.384 6.15718 158.941 5.85972 159.537 5.66076C160.269 5.42 161.036 5.30503 161.807 5.32076C162.596 5.30831 163.383 5.42312 164.137 5.66076C164.794 5.87024 165.403 6.21037 165.927 6.66076C166.434 7.11696 166.828 7.6854 167.077 8.32076C167.359 9.05405 167.499 9.8349 167.487 10.6208V18.0708C167.487 18.1625 167.469 18.2533 167.432 18.3375C167.396 18.4218 167.343 18.4978 167.277 18.5608C167.214 18.6249 167.14 18.6756 167.057 18.71C166.975 18.7444 166.886 18.7617 166.797 18.7608H164.877C164.786 18.7621 164.695 18.7452 164.611 18.711C164.527 18.6768 164.45 18.626 164.386 18.5617C164.321 18.4973 164.271 18.4207 164.236 18.3364C164.202 18.2521 164.185 18.1617 164.187 18.0708V17.2408C163.785 17.7751 163.26 18.204 162.657 18.4908C161.861 18.8663 160.986 19.0447 160.107 19.0108C159.429 19.025 158.753 18.927 158.107 18.7208C157.571 18.5522 157.077 18.2728 156.657 17.9008C156.272 17.5481 155.965 17.1189 155.757 16.6408C155.545 16.1413 155.439 15.6032 155.447 15.0608C155.421 14.5385 155.521 14.0177 155.736 13.5413C155.952 13.0649 156.278 12.6466 156.687 12.3208C157.689 11.5879 158.864 11.1264 160.097 10.9808L164.227 10.2708C164.252 9.98761 164.203 9.70271 164.084 9.44468C163.964 9.18665 163.779 8.96457 163.547 8.80076C163.031 8.50292 162.442 8.35406 161.847 8.37076C161.504 8.35337 161.162 8.41495 160.847 8.55076C160.597 8.67612 160.368 8.83789 160.167 9.03076C160.042 9.14573 159.901 9.24024 159.747 9.31076C159.613 9.36322 159.47 9.39035 159.327 9.39076H156.967C156.808 9.3965 156.653 9.33895 156.537 9.23076C156.479 9.1815 156.437 9.11648 156.415 9.04365C156.394 8.97083 156.395 8.89337 156.417 8.82076V8.82076ZM160.657 15.9808C161.177 15.9888 161.694 15.9076 162.187 15.7408C162.601 15.5976 162.985 15.3771 163.317 15.0908C163.606 14.8395 163.838 14.5292 163.997 14.1808C164.144 13.8677 164.222 13.5267 164.227 13.1808V12.8808L160.777 13.4808C160.248 13.544 159.74 13.7214 159.287 14.0008C159.139 14.1053 159.019 14.2451 158.939 14.4075C158.859 14.5699 158.82 14.7497 158.827 14.9308C158.825 15.1033 158.877 15.2721 158.975 15.4136C159.074 15.5552 159.214 15.6626 159.377 15.7208C159.78 15.8962 160.216 15.9848 160.657 15.9808V15.9808Z" fill="#455A64"/>
<path d="M176.657 21.2908C177.026 21.2894 177.393 21.2355 177.747 21.1308C178.11 21.0235 178.45 20.847 178.747 20.6108C179.053 20.363 179.308 20.0571 179.497 19.7108C179.695 19.3138 179.795 18.8746 179.787 18.4308V17.4908C179.624 17.6684 179.446 17.8323 179.257 17.9808C179.01 18.1779 178.742 18.3457 178.457 18.4808C178.108 18.645 177.742 18.7724 177.367 18.8608C176.904 18.9654 176.431 19.0157 175.957 19.0108C175.166 19.0237 174.383 18.8561 173.667 18.5208C172.999 18.206 172.403 17.7566 171.917 17.2008C171.425 16.6414 171.039 15.9977 170.777 15.3008C170.495 14.5823 170.336 13.8218 170.307 13.0508C170.307 12.8008 170.307 12.5008 170.307 12.1708C170.307 11.8408 170.307 11.5308 170.307 11.2808C170.336 10.5098 170.495 9.7492 170.777 9.03076C171.041 8.33496 171.427 7.69164 171.917 7.13076C172.4 6.576 172.992 6.12668 173.657 5.81076C174.373 5.47543 175.156 5.30785 175.947 5.32076C176.421 5.31578 176.894 5.36612 177.357 5.47076C177.732 5.55912 178.097 5.68648 178.447 5.85076C178.732 5.98577 179 6.15357 179.247 6.35076C179.436 6.4992 179.614 6.66309 179.777 6.84076V6.26076C179.779 6.08025 179.851 5.9077 179.978 5.77912C180.105 5.65055 180.276 5.5759 180.457 5.57076H182.387C182.567 5.57814 182.738 5.6532 182.866 5.78104C182.994 5.90887 183.069 6.08012 183.077 6.26076V18.1508C183.135 19.0004 183.012 19.8527 182.715 20.651C182.419 21.4493 181.955 22.1753 181.357 22.7808C180.045 23.8783 178.364 24.436 176.657 24.3408C175.843 24.3467 175.034 24.2287 174.257 23.9908C173.575 23.7936 172.929 23.4862 172.347 23.0808C171.835 22.7374 171.394 22.2996 171.047 21.7908C170.74 21.3504 170.557 20.8359 170.517 20.3008C170.508 20.2114 170.521 20.1214 170.554 20.038C170.587 19.9546 170.639 19.8802 170.707 19.8208C170.838 19.6934 171.014 19.6218 171.197 19.6208H172.927C173.039 19.6184 173.151 19.6384 173.256 19.6796C173.36 19.7208 173.456 19.7824 173.537 19.8608C173.707 20.0208 173.847 20.1708 173.967 20.3008C174.205 20.6069 174.513 20.8506 174.867 21.0108C175.436 21.2329 176.047 21.3284 176.657 21.2908V21.2908ZM173.657 11.4608C173.607 11.9328 173.607 12.4087 173.657 12.8808C173.663 13.7719 174.023 14.6241 174.657 15.2508C175.246 15.7376 175.992 15.9936 176.757 15.9708C177.521 15.9931 178.266 15.7292 178.847 15.2308C179.145 14.9649 179.387 14.6422 179.558 14.2816C179.73 13.921 179.828 13.5297 179.847 13.1308C179.883 12.7987 179.9 12.4648 179.897 12.1308C179.9 11.7967 179.883 11.4628 179.847 11.1308C179.805 10.3509 179.461 9.61795 178.888 9.08763C178.315 8.55731 177.557 8.27144 176.777 8.29076C176.012 8.26797 175.266 8.52387 174.677 9.01076C174.35 9.32884 174.091 9.70999 173.915 10.1311C173.74 10.5523 173.652 11.0046 173.657 11.4608V11.4608Z" fill="#455A64"/>
<path d="M185.927 12.1708C185.922 11.2591 186.071 10.3531 186.367 9.49076C186.645 8.68448 187.084 7.94293 187.657 7.31076C188.211 6.68626 188.893 6.18833 189.657 5.85076C190.471 5.50447 191.347 5.32598 192.232 5.32598C193.116 5.32598 193.992 5.50447 194.807 5.85076C195.56 6.17396 196.241 6.64685 196.807 7.24076C197.355 7.84051 197.782 8.53982 198.067 9.30076C198.36 10.0912 198.509 10.9278 198.507 11.7708V12.9108C198.51 13.0005 198.494 13.0899 198.459 13.1727C198.425 13.2556 198.373 13.33 198.307 13.3908C198.246 13.4576 198.172 13.5109 198.089 13.5471C198.006 13.5833 197.917 13.6016 197.827 13.6008H189.357C189.353 13.9488 189.435 14.2923 189.597 14.6008C189.754 14.8962 189.977 15.1525 190.247 15.3508C190.529 15.561 190.847 15.717 191.187 15.8108C191.541 15.9116 191.908 15.9621 192.277 15.9608C192.719 15.9727 193.161 15.9154 193.587 15.7908C193.886 15.6988 194.17 15.5605 194.427 15.3808C194.569 15.27 194.723 15.1761 194.887 15.1008C195.04 15.0432 195.203 15.016 195.367 15.0208H197.367C197.55 15.0218 197.725 15.0934 197.857 15.2208C197.927 15.2801 197.981 15.356 198.014 15.4416C198.047 15.5272 198.058 15.6197 198.047 15.7108C197.988 16.0399 197.854 16.3512 197.657 16.6208C197.355 17.0443 196.983 17.413 196.557 17.7108C195.996 18.0988 195.383 18.4052 194.737 18.6208C193.934 18.8863 193.092 19.0148 192.247 19.0008C191.362 19.0149 190.484 18.8482 189.667 18.5108C188.902 18.1987 188.218 17.7166 187.667 17.1008C187.094 16.4893 186.652 15.7681 186.367 14.9808C186.061 14.076 185.912 13.1257 185.927 12.1708V12.1708ZM192.147 8.36076C191.716 8.34828 191.287 8.42311 190.887 8.58076C190.562 8.70626 190.265 8.89682 190.017 9.14076C189.785 9.35509 189.598 9.61344 189.467 9.90076C189.344 10.1527 189.263 10.4229 189.227 10.7008H194.957C194.92 10.4285 194.856 10.1606 194.767 9.90076C194.672 9.61614 194.515 9.3564 194.307 9.14076C194.075 8.89515 193.791 8.70392 193.477 8.58076C193.052 8.41913 192.6 8.34432 192.147 8.36076V8.36076Z" fill="#455A64"/>
<path d="M219.297 18.0708C219.298 18.1609 219.281 18.2504 219.248 18.3341C219.214 18.4177 219.164 18.4939 219.101 18.5581C219.038 18.6223 218.962 18.6733 218.879 18.7081C218.796 18.7429 218.707 18.7608 218.617 18.7608H216.657C216.567 18.7617 216.479 18.7444 216.396 18.71C216.314 18.6756 216.239 18.6249 216.177 18.5608C216.11 18.4978 216.057 18.4218 216.021 18.3375C215.985 18.2533 215.966 18.1625 215.967 18.0708V11.6308C216.013 10.7636 215.763 9.90651 215.257 9.20076C214.992 8.88644 214.656 8.63988 214.277 8.4816C213.898 8.32331 213.486 8.25789 213.077 8.29076C212.679 8.27139 212.282 8.34332 211.916 8.50106C211.55 8.65879 211.226 8.89814 210.967 9.20076C210.42 9.88921 210.143 10.7529 210.187 11.6308V18.0708C210.189 18.1618 210.172 18.2524 210.138 18.3367C210.103 18.421 210.052 18.4973 209.987 18.5608C209.924 18.6244 209.849 18.6749 209.767 18.7092C209.684 18.7436 209.596 18.7611 209.507 18.7608H207.657C207.567 18.7611 207.479 18.7436 207.396 18.7092C207.314 18.6749 207.239 18.6244 207.177 18.5608C207.111 18.4973 207.06 18.421 207.025 18.3367C206.991 18.2524 206.974 18.1618 206.977 18.0708V6.26076C206.973 6.17104 206.989 6.08166 207.024 5.99878C207.058 5.9159 207.111 5.84151 207.177 5.78076C207.237 5.71387 207.311 5.66058 207.394 5.62439C207.477 5.5882 207.566 5.56992 207.657 5.57076H209.587C209.677 5.56992 209.766 5.5882 209.849 5.62439C209.932 5.66058 210.006 5.71387 210.067 5.78076C210.133 5.84151 210.185 5.9159 210.219 5.99878C210.254 6.08166 210.27 6.17104 210.267 6.26076V6.84076C210.72 6.39449 211.243 6.02619 211.817 5.75076C212.474 5.44792 213.193 5.30078 213.917 5.32076C214.805 5.29151 215.688 5.45527 216.507 5.80076C217.159 6.0903 217.732 6.5328 218.177 7.09076C218.61 7.64807 218.917 8.29297 219.077 8.98076C219.259 9.72353 219.35 10.4859 219.347 11.2508L219.297 18.0708Z" fill="#455A64"/>
<path d="M228.477 5.32076C229.336 5.30681 230.19 5.45261 230.997 5.75076C231.718 6.03502 232.379 6.45226 232.947 6.98076C233.494 7.48604 233.942 8.08987 234.267 8.76076C234.599 9.44244 234.793 10.1835 234.837 10.9408C234.849 11.1339 234.849 11.3276 234.837 11.5208V12.9308C234.849 13.1206 234.849 13.311 234.837 13.5008C234.774 14.256 234.578 14.9942 234.257 15.6808C233.941 16.3488 233.496 16.9471 232.947 17.4408C232.376 17.952 231.714 18.3521 230.997 18.6208C229.378 19.1847 227.616 19.1847 225.997 18.6208C225.261 18.3591 224.582 17.9585 223.997 17.4408C223.45 16.9467 223.008 16.3483 222.697 15.6808C222.372 14.9947 222.173 14.2566 222.107 13.5008C222.107 13.3474 222.107 13.1574 222.107 12.9308C222.107 12.7008 222.107 12.4708 222.107 12.2308C222.107 11.9908 222.107 11.7608 222.107 11.5208C222.107 11.2808 222.107 11.0908 222.107 10.9408C222.16 10.185 222.353 9.4458 222.677 8.76076C223.001 8.08987 223.449 7.48604 223.997 6.98076C224.581 6.46002 225.26 6.05608 225.997 5.79076C226.788 5.48381 227.628 5.32451 228.477 5.32076V5.32076ZM231.547 11.0208C231.512 10.5669 231.386 10.1248 231.177 9.72076C230.999 9.39812 230.754 9.11822 230.457 8.90076C230.177 8.69468 229.857 8.55141 229.517 8.48076C229.189 8.40387 228.853 8.36363 228.517 8.36076C228.18 8.36304 227.844 8.4033 227.517 8.48076C227.177 8.55141 226.856 8.69468 226.577 8.90076C226.275 9.11267 226.028 9.39385 225.857 9.72076C225.642 10.1229 225.516 10.5661 225.487 11.0208C225.487 11.1608 225.487 11.3308 225.487 11.5308C225.487 11.7308 225.487 11.9508 225.487 12.1708C225.487 12.3908 225.487 12.6008 225.487 12.8108C225.478 12.9773 225.478 13.1442 225.487 13.3108C225.515 13.7657 225.641 14.2091 225.857 14.6108C226.03 14.9386 226.277 15.2224 226.577 15.4408C226.861 15.6389 227.18 15.7814 227.517 15.8608C227.846 15.9303 228.18 15.9671 228.517 15.9708C228.853 15.9667 229.188 15.9298 229.517 15.8608C229.854 15.7814 230.173 15.6389 230.457 15.4408C230.752 15.217 230.997 14.9344 231.177 14.6108C231.388 14.2073 231.513 13.7648 231.547 13.3108C231.547 13.1908 231.547 13.0208 231.547 12.8108V11.5308C231.567 11.3308 231.557 11.1608 231.547 10.9808V11.0208Z" fill="#455A64"/>
<path d="M242.037 13.9808C242.014 14.4385 242.164 14.8882 242.457 15.2408C242.671 15.4211 242.92 15.5557 243.188 15.6365C243.456 15.7174 243.738 15.7426 244.017 15.7108H245.567C245.656 15.7093 245.745 15.7263 245.827 15.7607C245.91 15.7951 245.985 15.8462 246.047 15.9108C246.111 15.9731 246.162 16.0477 246.196 16.1302C246.23 16.2127 246.248 16.3014 246.247 16.3908V18.0608C246.248 18.1509 246.231 18.2404 246.198 18.3241C246.164 18.4077 246.114 18.4839 246.051 18.5481C245.988 18.6123 245.912 18.6633 245.829 18.6981C245.746 18.7329 245.657 18.7508 245.567 18.7508H243.657C242.334 18.8381 241.027 18.4239 239.997 17.5908C239.54 17.1304 239.189 16.5762 238.968 15.9667C238.747 15.3571 238.661 14.7068 238.717 14.0608V8.62076H237.037C236.856 8.61562 236.685 8.54097 236.558 8.41239C236.431 8.28382 236.359 8.11126 236.357 7.93076V6.26076C236.359 6.08025 236.431 5.9077 236.558 5.77912C236.685 5.65055 236.856 5.5759 237.037 5.57076H238.717V1.44076C238.717 1.26041 238.788 1.08745 238.916 0.959926C239.043 0.832401 239.216 0.760757 239.397 0.760757H241.327C241.416 0.75926 241.505 0.776254 241.587 0.810668C241.67 0.845083 241.745 0.896178 241.807 0.960758C241.871 1.02305 241.921 1.09772 241.956 1.18023C241.99 1.26274 242.008 1.35138 242.007 1.44076V5.57076H245.277C245.457 5.57814 245.629 5.6532 245.756 5.78104C245.884 5.90887 245.959 6.08012 245.967 6.26076V7.98076C245.959 8.16139 245.884 8.33264 245.756 8.46048C245.629 8.58831 245.457 8.66337 245.277 8.67076H242.007L242.037 13.9808Z" fill="#455A64"/>
<path d="M258.657 5.57076H262.177C262.268 5.57037 262.359 5.5888 262.443 5.62492C262.528 5.66105 262.604 5.71409 262.667 5.78076C262.731 5.84305 262.781 5.91772 262.816 6.00023C262.85 6.08274 262.868 6.17138 262.867 6.26076V7.98076C262.868 8.07014 262.85 8.15878 262.816 8.24129C262.781 8.3238 262.731 8.39846 262.667 8.46076C262.604 8.52743 262.528 8.58047 262.443 8.61659C262.359 8.65272 262.268 8.67115 262.177 8.67076H258.657V18.1208C258.658 18.2109 258.641 18.3004 258.608 18.3841C258.574 18.4677 258.524 18.5439 258.461 18.6081C258.398 18.6723 258.322 18.7233 258.239 18.7581C258.156 18.7929 258.067 18.8108 257.977 18.8108H256.047C255.957 18.8117 255.869 18.7944 255.786 18.76C255.704 18.7256 255.629 18.6749 255.567 18.6108C255.5 18.5478 255.447 18.4718 255.411 18.3875C255.375 18.3033 255.356 18.2125 255.357 18.1208V8.62076H253.657C253.566 8.62224 253.477 8.60426 253.394 8.56802C253.311 8.53179 253.237 8.47815 253.177 8.41076C253.11 8.35 253.058 8.27561 253.024 8.19274C252.989 8.10986 252.973 8.02048 252.977 7.93076V6.26076C252.973 6.17104 252.989 6.08166 253.024 5.99878C253.058 5.9159 253.11 5.84151 253.177 5.78076C253.237 5.71337 253.311 5.65973 253.394 5.62349C253.477 5.58726 253.566 5.56927 253.657 5.57076H255.327V4.43076C255.307 3.72688 255.429 3.02626 255.687 2.37076C255.896 1.82991 256.24 1.3515 256.687 0.980759C257.157 0.617833 257.699 0.3588 258.277 0.220761C258.952 0.065451 259.644 -0.00840948 260.337 0.000759699H262.397C262.486 -0.000736814 262.575 0.0162528 262.657 0.0506674C262.74 0.085082 262.815 0.136181 262.877 0.20076C262.941 0.263056 262.991 0.337721 263.026 0.420231C263.06 0.502742 263.078 0.591378 263.077 0.68076V2.35076C263.078 2.44089 263.061 2.5304 263.028 2.61406C262.994 2.69772 262.944 2.77386 262.881 2.83807C262.818 2.90228 262.742 2.95326 262.659 2.98806C262.576 3.02285 262.487 3.04077 262.397 3.04076H260.657C260.144 3.00508 259.632 3.12348 259.187 3.38076C258.999 3.53914 258.854 3.74201 258.765 3.97084C258.676 4.19968 258.645 4.44718 258.677 4.69076L258.657 5.57076Z" fill="#455A64"/>
<path d="M270.657 5.32076C271.516 5.30681 272.37 5.45261 273.177 5.75076C273.884 6.03942 274.531 6.45644 275.087 6.98076C275.634 7.48604 276.082 8.08987 276.407 8.76076C276.739 9.44244 276.933 10.1835 276.977 10.9408C276.989 11.1339 276.989 11.3276 276.977 11.5208V12.9308C276.989 13.1206 276.989 13.311 276.977 13.5008C276.914 14.256 276.717 14.9942 276.397 15.6808C276.081 16.3488 275.636 16.9471 275.087 17.4408C274.516 17.952 273.854 18.3521 273.137 18.6208C272.339 18.8903 271.498 19.0122 270.657 18.9808C269.794 18.9946 268.936 18.8488 268.127 18.5508C267.409 18.2821 266.748 17.882 266.177 17.3708C265.63 16.8767 265.188 16.2783 264.877 15.6108C264.548 14.9264 264.348 14.1875 264.287 13.4308C264.287 13.2808 264.287 13.0908 264.287 12.8608C264.287 12.6308 264.287 12.4008 264.287 12.1608C264.287 11.9208 264.287 11.6908 264.287 11.4508C264.287 11.2108 264.287 11.0208 264.287 10.8708C264.33 10.1135 264.524 9.37244 264.857 8.69076C265.176 8.04809 265.61 7.46873 266.137 6.98076C266.707 6.46655 267.368 6.06301 268.087 5.79076C268.906 5.4742 269.778 5.31475 270.657 5.32076V5.32076ZM273.657 10.9808C273.625 10.5276 273.503 10.0855 273.297 9.68076C273.119 9.35532 272.869 9.07482 272.567 8.86076C272.291 8.65489 271.973 8.51157 271.637 8.44076C271.309 8.36387 270.973 8.32363 270.637 8.32076C270.3 8.32252 269.964 8.36279 269.637 8.44076C269.297 8.51141 268.976 8.65468 268.697 8.86076C268.395 9.07267 268.148 9.35385 267.977 9.68076C267.762 10.0829 267.636 10.5261 267.607 10.9808C267.607 11.1208 267.607 11.2908 267.607 11.4908C267.607 11.6908 267.607 11.9108 267.607 12.1308C267.607 12.3508 267.607 12.5608 267.607 12.7708C267.598 12.9373 267.598 13.1042 267.607 13.2708C267.635 13.7257 267.761 14.1691 267.977 14.5708C268.15 14.8986 268.397 15.1824 268.697 15.4008C268.981 15.5989 269.3 15.7414 269.637 15.8208C269.965 15.891 270.3 15.9278 270.637 15.9308C270.973 15.9267 271.308 15.8898 271.637 15.8208C271.971 15.7411 272.286 15.5986 272.567 15.4008C272.867 15.1803 273.116 14.8971 273.297 14.5708C273.504 14.1665 273.627 13.7241 273.657 13.2708C273.669 13.1043 273.669 12.9372 273.657 12.7708V11.5308C273.67 11.3477 273.67 11.1638 273.657 10.9808Z" fill="#455A64"/>
<path d="M279.767 6.26076C279.769 6.08025 279.841 5.9077 279.968 5.77912C280.095 5.65055 280.266 5.5759 280.447 5.57076H282.377C282.557 5.57814 282.728 5.6532 282.856 5.78104C282.984 5.90887 283.059 6.08012 283.067 6.26076V12.7008C283.023 13.5575 283.247 14.4066 283.707 15.1308C283.955 15.4487 284.279 15.6995 284.65 15.8602C285.02 16.0209 285.425 16.0864 285.827 16.0508C286.217 16.0729 286.607 16.0009 286.964 15.8408C287.321 15.6807 287.634 15.4372 287.877 15.1308C288.383 14.425 288.633 13.5679 288.587 12.7008V6.26076C288.594 6.08012 288.669 5.90887 288.797 5.78104C288.925 5.6532 289.096 5.57814 289.277 5.57076H291.197C291.288 5.57037 291.379 5.5888 291.463 5.62492C291.548 5.66104 291.624 5.71408 291.687 5.78076C291.751 5.84305 291.802 5.91772 291.836 6.00023C291.87 6.08274 291.888 6.17137 291.887 6.26076V18.0708C291.888 18.1617 291.871 18.2521 291.837 18.3364C291.803 18.4207 291.752 18.4973 291.688 18.5617C291.623 18.626 291.547 18.6768 291.462 18.711C291.378 18.7452 291.288 18.7621 291.197 18.7608H289.277C289.187 18.7617 289.099 18.7444 289.016 18.71C288.934 18.6756 288.859 18.6249 288.797 18.5608C288.73 18.4978 288.677 18.4218 288.641 18.3375C288.605 18.2533 288.586 18.1625 288.587 18.0708V17.4908C288.156 17.8904 287.671 18.2271 287.147 18.4908C286.505 18.8225 285.789 18.9843 285.067 18.9608C284.188 18.9901 283.315 18.8263 282.507 18.4808C281.867 18.1931 281.31 17.7495 280.887 17.1908C280.467 16.6287 280.171 15.9848 280.017 15.3008C279.846 14.5563 279.762 13.7945 279.767 13.0308V6.26076Z" fill="#455A64"/>
<path d="M307.757 18.0708C307.758 18.1609 307.741 18.2504 307.708 18.3341C307.674 18.4177 307.624 18.4939 307.561 18.5581C307.498 18.6223 307.422 18.6733 307.339 18.7081C307.256 18.7429 307.167 18.7608 307.077 18.7608H305.147C305.057 18.7617 304.969 18.7444 304.886 18.71C304.804 18.6756 304.729 18.6249 304.667 18.5608C304.6 18.4978 304.547 18.4218 304.511 18.3375C304.475 18.2533 304.456 18.1625 304.457 18.0708V11.6308C304.503 10.7636 304.253 9.90651 303.747 9.20076C303.482 8.88644 303.146 8.63988 302.767 8.4816C302.388 8.32331 301.976 8.25789 301.567 8.29076C301.169 8.27139 300.772 8.34332 300.406 8.50106C300.04 8.65879 299.716 8.89814 299.457 9.20076C298.91 9.88921 298.633 10.7529 298.677 11.6308V18.0708C298.679 18.1618 298.662 18.2524 298.628 18.3367C298.593 18.421 298.542 18.4973 298.477 18.5608C298.414 18.6244 298.339 18.6749 298.257 18.7092C298.174 18.7436 298.086 18.7611 297.997 18.7608H296.067C295.977 18.7611 295.889 18.7436 295.806 18.7092C295.724 18.6749 295.649 18.6244 295.587 18.5608C295.521 18.4973 295.47 18.421 295.435 18.3367C295.401 18.2524 295.384 18.1618 295.387 18.0708V6.26076C295.383 6.17104 295.399 6.08166 295.434 5.99878C295.468 5.9159 295.52 5.84151 295.587 5.78076C295.647 5.71387 295.721 5.66058 295.804 5.62439C295.887 5.5882 295.976 5.56992 296.067 5.57076H297.997C298.087 5.56992 298.176 5.5882 298.259 5.62439C298.342 5.66058 298.416 5.71387 298.477 5.78076C298.543 5.84151 298.595 5.9159 298.629 5.99878C298.664 6.08166 298.68 6.17104 298.677 6.26076V6.84076C299.13 6.39449 299.653 6.02619 300.227 5.75076C300.884 5.44792 301.603 5.30078 302.327 5.32076C303.215 5.29151 304.098 5.45527 304.917 5.80076C305.569 6.0903 306.142 6.5328 306.587 7.09076C307.02 7.64807 307.327 8.29297 307.487 8.98076C307.669 9.72353 307.76 10.4859 307.757 11.2508V18.0708Z" fill="#455A64"/>
<path d="M316.197 5.32076C316.671 5.31485 317.144 5.3652 317.607 5.47076C317.982 5.55913 318.348 5.68648 318.697 5.85076C318.982 5.98577 319.25 6.15357 319.497 6.35076C319.689 6.49657 319.866 6.66068 320.027 6.84076V1.44076C320.027 1.35061 320.045 1.26136 320.079 1.1782C320.114 1.09504 320.165 1.01963 320.229 0.956356C320.294 0.89308 320.37 0.843203 320.453 0.809624C320.537 0.776044 320.626 0.759432 320.717 0.760757H322.657C322.746 0.757352 322.836 0.773475 322.919 0.808006C323.001 0.842538 323.076 0.894655 323.137 0.960758C323.204 1.02101 323.258 1.09507 323.294 1.17789C323.33 1.26072 323.348 1.35037 323.347 1.44076V18.0708C323.347 18.1625 323.329 18.2533 323.292 18.3375C323.256 18.4218 323.203 18.4978 323.137 18.5608C323.074 18.6249 323 18.6756 322.917 18.71C322.835 18.7444 322.746 18.7617 322.657 18.7608H320.737C320.646 18.7621 320.555 18.7452 320.471 18.711C320.387 18.6768 320.31 18.626 320.246 18.5617C320.181 18.4973 320.131 18.4207 320.096 18.3364C320.062 18.2521 320.045 18.1617 320.047 18.0708V17.4908C319.886 17.6708 319.709 17.8349 319.517 17.9808C319.27 18.1779 319.002 18.3457 318.717 18.4808C318.368 18.645 318.002 18.7724 317.627 18.8608C317.164 18.9663 316.691 19.0167 316.217 19.0108C315.426 19.0237 314.643 18.8561 313.927 18.5208C313.259 18.206 312.663 17.7566 312.177 17.2008C311.689 16.6389 311.303 15.9958 311.037 15.3008C310.755 14.5823 310.596 13.8218 310.567 13.0508C310.567 12.8008 310.567 12.5008 310.567 12.1708C310.567 11.8408 310.567 11.5308 310.567 11.2808C310.596 10.5098 310.755 9.7492 311.037 9.03076C311.305 8.33676 311.691 7.69406 312.177 7.13076C312.663 6.57491 313.259 6.12551 313.927 5.81076C314.637 5.47839 315.413 5.31088 316.197 5.32076V5.32076ZM313.837 11.4608C313.787 11.9328 313.787 12.4087 313.837 12.8808C313.848 13.771 314.207 14.6216 314.837 15.2508C315.427 15.736 316.173 15.9917 316.937 15.9708C317.704 15.9917 318.452 15.7281 319.037 15.2308C319.335 14.9649 319.577 14.6422 319.748 14.2816C319.92 13.921 320.018 13.5297 320.037 13.1308C320.073 12.7987 320.09 12.4648 320.087 12.1308C320.09 11.7967 320.073 11.4628 320.037 11.1308C319.995 10.3509 319.651 9.61795 319.078 9.08763C318.505 8.55731 317.747 8.27144 316.967 8.29076C316.203 8.26979 315.457 8.52548 314.867 9.01076C314.54 9.32939 314.28 9.71043 314.103 10.1313C313.926 10.5521 313.836 11.0042 313.837 11.4608V11.4608Z" fill="#455A64"/>
<path d="M178.097 43.7408C178.179 43.7399 178.261 43.7563 178.337 43.7891C178.413 43.8218 178.481 43.8701 178.537 43.9308C178.595 43.988 178.641 44.0565 178.672 44.1322C178.703 44.2078 178.718 44.289 178.717 44.3708V46.8308C178.718 46.9125 178.703 46.9937 178.672 47.0693C178.641 47.145 178.595 47.2135 178.537 47.2708C178.481 47.3314 178.413 47.3797 178.337 47.4124C178.261 47.4452 178.179 47.4616 178.097 47.4608H167.097C167.014 47.4623 166.932 47.4461 166.856 47.4133C166.78 47.3806 166.712 47.332 166.657 47.2708C166.597 47.214 166.549 47.1458 166.517 47.0702C166.484 46.9946 166.467 46.9131 166.467 46.8308V31.8308C166.467 31.7484 166.484 31.6669 166.517 31.5913C166.549 31.5157 166.597 31.4475 166.657 31.3908C166.712 31.3296 166.78 31.281 166.856 31.2482C166.932 31.2154 167.014 31.1992 167.097 31.2008H177.927C178.092 31.2058 178.249 31.2738 178.367 31.3908C178.484 31.5079 178.552 31.6653 178.557 31.8308V34.2808C178.558 34.3648 178.541 34.4482 178.509 34.5256C178.476 34.603 178.428 34.6729 178.367 34.7308C178.309 34.7892 178.241 34.8352 178.165 34.8662C178.09 34.8971 178.008 34.9123 177.927 34.9108H170.767V37.4208H177.417C177.499 37.4192 177.581 37.4354 177.657 37.4682C177.733 37.501 177.801 37.5496 177.857 37.6108C177.916 37.6675 177.964 37.7357 177.997 37.8113C178.029 37.8869 178.046 37.9684 178.047 38.0508V40.5108C178.046 40.5931 178.029 40.6746 177.997 40.7502C177.964 40.8258 177.916 40.894 177.857 40.9508C177.801 41.012 177.733 41.0606 177.657 41.0933C177.581 41.1261 177.499 41.1423 177.417 41.1408H170.767V43.7408H178.097Z" fill="#BA68C8"/>
<path d="M188.317 31.1908C189.241 31.1784 190.162 31.2894 191.057 31.5208C191.801 31.7188 192.501 32.0583 193.117 32.5208C193.682 32.9604 194.129 33.5345 194.417 34.1908C194.73 34.9337 194.884 35.7345 194.867 36.5408C194.906 37.5561 194.656 38.5617 194.147 39.4408C193.666 40.2078 192.971 40.8164 192.147 41.1908L195.027 46.7208C195.071 46.8004 195.095 46.8897 195.097 46.9808C195.097 47.116 195.043 47.2457 194.947 47.3414C194.852 47.437 194.722 47.4908 194.587 47.4908H191.427C191.308 47.5028 191.188 47.4904 191.075 47.4543C190.961 47.4181 190.856 47.3591 190.767 47.2808C190.642 47.1555 190.534 47.0143 190.447 46.8608L187.867 41.8608H185.657V46.8608C185.658 46.9425 185.643 47.0237 185.612 47.0994C185.581 47.175 185.535 47.2436 185.477 47.3008C185.421 47.3615 185.353 47.4097 185.277 47.4425C185.201 47.4752 185.119 47.4916 185.037 47.4908H182.037C181.954 47.4916 181.872 47.4752 181.796 47.4425C181.721 47.4097 181.653 47.3615 181.597 47.3008C181.538 47.2436 181.492 47.175 181.461 47.0994C181.43 47.0237 181.415 46.9425 181.417 46.8608V31.8608C181.415 31.779 181.43 31.6978 181.461 31.6222C181.492 31.5465 181.538 31.478 181.597 31.4208C181.653 31.3601 181.721 31.3118 181.796 31.2791C181.872 31.2463 181.954 31.2299 182.037 31.2308L188.317 31.1908ZM185.687 38.1908H188.317C188.88 38.2132 189.439 38.0855 189.937 37.8208C190.156 37.6754 190.33 37.4724 190.441 37.2343C190.552 36.9961 190.596 36.7319 190.567 36.4708C190.596 36.211 190.553 35.948 190.442 35.7114C190.33 35.4748 190.156 35.2737 189.937 35.1308C189.439 34.866 188.88 34.7383 188.317 34.7608H185.657L185.687 38.1908Z" fill="#BA68C8"/>
<path d="M204.467 31.1908C205.391 31.1784 206.312 31.2894 207.207 31.5208C207.951 31.7188 208.651 32.0583 209.267 32.5208C209.835 32.9577 210.283 33.5325 210.567 34.1908C210.88 34.9337 211.034 35.7345 211.017 36.5408C211.056 37.5561 210.806 38.5617 210.297 39.4408C209.816 40.2078 209.121 40.8164 208.297 41.1908L211.177 46.7208C211.221 46.8004 211.245 46.8897 211.247 46.9808C211.247 47.116 211.193 47.2457 211.097 47.3414C211.002 47.437 210.872 47.4908 210.737 47.4908H207.577C207.458 47.5028 207.338 47.4904 207.225 47.4543C207.111 47.4181 207.006 47.3591 206.917 47.2808C206.792 47.1555 206.684 47.0143 206.597 46.8608L204.017 41.8608H201.887V46.8608C201.886 46.9431 201.869 47.0246 201.837 47.1002C201.804 47.1758 201.756 47.244 201.697 47.3008C201.641 47.3615 201.573 47.4097 201.497 47.4425C201.421 47.4752 201.339 47.4916 201.257 47.4908H198.207C198.124 47.4916 198.042 47.4752 197.966 47.4425C197.891 47.4097 197.823 47.3615 197.767 47.3008C197.708 47.2436 197.662 47.175 197.631 47.0994C197.6 47.0237 197.585 46.9425 197.587 46.8608V31.8608C197.585 31.779 197.6 31.6978 197.631 31.6222C197.662 31.5465 197.708 31.478 197.767 31.4208C197.823 31.3601 197.891 31.3118 197.966 31.2791C198.042 31.2463 198.124 31.2299 198.207 31.2308L204.467 31.1908ZM201.847 38.1908H204.467C205.03 38.2132 205.589 38.0855 206.087 37.8208C206.306 37.6754 206.48 37.4724 206.591 37.2343C206.702 36.9961 206.746 36.7319 206.717 36.4708C206.746 36.211 206.703 35.948 206.592 35.7114C206.48 35.4748 206.306 35.2737 206.087 35.1308C205.589 34.866 205.03 34.7383 204.467 34.7608H201.847V38.1908Z" fill="#BA68C8"/>
<path d="M213.157 37.2608C213.2 36.4168 213.393 35.5873 213.727 34.8108C214.052 34.0505 214.536 33.3686 215.147 32.8108C215.793 32.2174 216.551 31.7585 217.377 31.4608C219.338 30.794 221.465 30.794 223.427 31.4608C224.251 31.7609 225.009 32.2195 225.657 32.8108C226.264 33.3689 226.745 34.0509 227.067 34.8108C227.409 35.5842 227.603 36.4155 227.637 37.2608C227.637 37.9208 227.687 38.6208 227.687 39.3508C227.687 40.0808 227.687 40.7608 227.637 41.3508C227.602 42.1991 227.408 43.0335 227.067 43.8108C226.737 44.5658 226.257 45.2462 225.657 45.8108C225.005 46.4046 224.239 46.8604 223.407 47.1508C221.443 47.8043 219.32 47.8043 217.357 47.1508C216.53 46.8602 215.771 46.4043 215.127 45.8108C214.523 45.2466 214.04 44.5663 213.707 43.8108C213.374 43.0304 213.181 42.1978 213.137 41.3508C213.137 40.7208 213.137 40.0408 213.137 39.3508C213.137 38.6608 213.127 37.9208 213.157 37.2608ZM223.357 41.2608C223.357 40.9808 223.357 40.6708 223.407 40.3308C223.457 39.9908 223.407 39.6408 223.407 39.2808C223.407 38.9208 223.407 38.5808 223.407 38.2808C223.407 37.9808 223.407 37.6508 223.357 37.3808C223.331 37.0172 223.25 36.6598 223.117 36.3208C222.991 36.0016 222.8 35.7121 222.557 35.4708C222.302 35.2223 221.999 35.0283 221.667 34.9008C221.263 34.7534 220.836 34.6822 220.407 34.6908C219.98 34.6811 219.556 34.7523 219.157 34.9008C218.82 35.0258 218.514 35.22 218.257 35.4708C218.016 35.7148 217.826 36.0035 217.697 36.3208C217.563 36.6598 217.482 37.0172 217.457 37.3808C217.457 37.6474 217.437 37.9474 217.397 38.2808C217.397 38.6108 217.397 38.9608 217.397 39.2808C217.397 39.6008 217.397 39.9908 217.397 40.3308C217.397 40.6708 217.397 40.9808 217.457 41.2608C217.494 41.9767 217.777 42.658 218.257 43.1908C218.541 43.4617 218.88 43.6695 219.25 43.8004C219.621 43.9314 220.015 43.9826 220.407 43.9508C220.797 43.9838 221.19 43.933 221.559 43.802C221.928 43.6709 222.265 43.4625 222.547 43.1908C223.017 42.6593 223.302 41.9886 223.357 41.2808V41.2608Z" fill="#BA68C8"/>
<path d="M237.307 31.1908C238.231 31.1791 239.152 31.2901 240.047 31.5208C240.788 31.7178 241.485 32.0575 242.097 32.5208C242.665 32.9598 243.116 33.5338 243.407 34.1908C243.72 34.9337 243.874 35.7345 243.857 36.5408C243.896 37.5561 243.646 38.5617 243.137 39.4408C242.644 40.2165 241.93 40.8263 241.087 41.1908L243.967 46.7208C244.013 46.8 244.041 46.889 244.047 46.9808C244.046 47.0485 244.031 47.1153 244.004 47.1772C243.976 47.2391 243.936 47.2947 243.887 47.3408C243.84 47.3891 243.784 47.4273 243.722 47.4531C243.66 47.4789 243.594 47.4917 243.527 47.4908H240.367C240.248 47.5028 240.128 47.4904 240.015 47.4543C239.901 47.4181 239.796 47.3591 239.707 47.2808C239.584 47.1558 239.48 47.0144 239.397 46.8608L236.817 41.8608H234.657V46.8608C234.652 47.0263 234.584 47.1836 234.467 47.3007C234.349 47.4178 234.192 47.4857 234.027 47.4908H231.027C230.861 47.4857 230.704 47.4178 230.587 47.3007C230.47 47.1836 230.402 47.0263 230.397 46.8608V31.8608C230.402 31.6953 230.47 31.5379 230.587 31.4208C230.704 31.3038 230.861 31.2358 231.027 31.2308L237.307 31.1908ZM234.677 38.1908H237.307C237.867 38.2133 238.423 38.0856 238.917 37.8208C239.139 37.6783 239.317 37.4762 239.43 37.2375C239.543 36.9988 239.587 36.7331 239.557 36.4708C239.586 36.2099 239.542 35.9459 239.429 35.7089C239.316 35.472 239.138 35.2716 238.917 35.1308C238.423 34.8659 237.867 34.7382 237.307 34.7608H234.657L234.677 38.1908Z" fill="#BA68C8"/>
<path d="M259.127 47.4608C259.043 47.4618 258.959 47.4455 258.882 47.4128C258.804 47.3801 258.734 47.3317 258.677 47.2708C258.618 47.2136 258.572 47.145 258.541 47.0693C258.51 46.9937 258.495 46.9125 258.497 46.8308V44.4608H251.177C251.095 44.4623 251.014 44.4472 250.938 44.4162C250.862 44.3852 250.794 44.3392 250.737 44.2808C250.676 44.2229 250.627 44.153 250.595 44.0756C250.562 43.9982 250.546 43.9148 250.547 43.8308V41.3708C250.534 41.0136 250.64 40.6622 250.847 40.3708L257.797 31.6108C257.901 31.4748 258.03 31.3595 258.177 31.2708C258.33 31.2132 258.493 31.186 258.657 31.1908H262.167C262.249 31.1892 262.331 31.2054 262.407 31.2382C262.483 31.271 262.551 31.3196 262.607 31.3808C262.666 31.4375 262.714 31.5057 262.747 31.5813C262.779 31.6569 262.796 31.7384 262.797 31.8208V40.7408H264.797C264.963 40.7437 265.121 40.8119 265.237 40.9308C265.295 40.988 265.341 41.0565 265.372 41.1322C265.403 41.2078 265.418 41.289 265.417 41.3708V43.8308C265.418 43.9986 265.353 44.1602 265.237 44.2808C265.179 44.3382 265.11 44.3837 265.035 44.4146C264.959 44.4455 264.878 44.4612 264.797 44.4608H262.797V46.8308C262.796 46.9131 262.779 46.9946 262.747 47.0702C262.714 47.1458 262.666 47.214 262.607 47.2708C262.551 47.332 262.483 47.3806 262.407 47.4133C262.331 47.4461 262.249 47.4623 262.167 47.4608H259.127ZM258.657 40.7408V36.4708L255.267 40.7408H258.657Z" fill="#BA68C8"/>
<path d="M274.157 30.9808C275.18 30.9572 276.198 31.1304 277.157 31.4908C277.938 31.7969 278.647 32.2636 279.237 32.8608C279.783 33.4334 280.202 34.1149 280.467 34.8608C280.738 35.6378 280.9 36.449 280.947 37.2708C280.947 37.9308 280.947 38.6308 280.947 39.3608C280.947 40.0908 280.947 40.7708 280.947 41.3608C280.9 42.1825 280.738 42.9938 280.467 43.7708C280.207 44.5187 279.787 45.2012 279.237 45.7708C278.647 46.3679 277.938 46.8346 277.157 47.1408C275.214 47.8206 273.099 47.8206 271.157 47.1408C270.375 46.8346 269.667 46.3679 269.077 45.7708C268.526 45.2012 268.107 44.5187 267.847 43.7708C267.575 42.9938 267.413 42.1825 267.367 41.3608C267.367 40.7308 267.367 40.0508 267.367 39.3608C267.367 38.6708 267.367 37.9308 267.367 37.2708C267.413 36.449 267.575 35.6378 267.847 34.8608C268.111 34.1149 268.53 33.4334 269.077 32.8608C269.667 32.2636 270.375 31.7969 271.157 31.4908C272.115 31.1304 273.133 30.9572 274.157 30.9808ZM276.657 41.2808C276.717 39.9608 276.717 38.6608 276.657 37.3708C276.631 37.0125 276.571 36.6575 276.477 36.3108C276.403 36.003 276.267 35.7137 276.077 35.4608C275.876 35.2138 275.618 35.0183 275.327 34.8908C274.959 34.7392 274.564 34.6676 274.167 34.6808C273.77 34.6685 273.374 34.7401 273.007 34.8908C272.715 35.0183 272.458 35.2138 272.257 35.4608C272.067 35.7154 271.928 36.0039 271.847 36.3108C271.746 36.6557 271.689 37.0118 271.677 37.3708C271.607 38.6731 271.607 39.9784 271.677 41.2808C271.693 41.6413 271.743 41.9996 271.827 42.3508C271.909 42.659 272.052 42.9479 272.247 43.2008C272.452 43.4454 272.712 43.6374 273.007 43.7608C273.374 43.9114 273.77 43.983 274.167 43.9708C274.564 43.9839 274.959 43.9123 275.327 43.7608C275.621 43.6374 275.882 43.4454 276.087 43.2008C276.281 42.9479 276.424 42.659 276.507 42.3508C276.59 41.9996 276.64 41.6413 276.657 41.2808V41.2808Z" fill="#BA68C8"/>
<path d="M291.447 47.4608C291.281 47.4557 291.124 47.3877 291.007 47.2707C290.89 47.1536 290.822 46.9963 290.817 46.8308V44.4608H283.497C283.415 44.4623 283.334 44.4471 283.258 44.4162C283.182 44.3852 283.114 44.3392 283.057 44.2808C282.937 44.1612 282.869 43.9998 282.867 43.8308V41.3708C282.852 41.0118 282.962 40.6588 283.177 40.3708L290.117 31.6108C290.222 31.4719 290.355 31.3561 290.507 31.2708C290.656 31.2121 290.816 31.1849 290.977 31.1908H294.487C294.652 31.1958 294.809 31.2638 294.927 31.3808C295.044 31.4979 295.112 31.6553 295.117 31.8208V40.7408H297.117C297.282 40.7458 297.439 40.8138 297.557 40.9308C297.674 41.0479 297.742 41.2053 297.747 41.3708V43.8308C297.744 43.9998 297.676 44.1612 297.557 44.2808C297.499 44.3392 297.431 44.3852 297.355 44.4162C297.28 44.4471 297.198 44.4623 297.117 44.4608H295.117V46.8308C295.112 46.9963 295.044 47.1536 294.927 47.2707C294.809 47.3877 294.652 47.4557 294.487 47.4608H291.447ZM290.937 40.7408V36.4708L287.547 40.7408H290.937Z" fill="#BA68C8"/>
</svg>
