<svg width="483" height="497" viewBox="0 0 483 497" fill="none" xmlns="http://www.w3.org/2000/svg">
<path d="M470.919 23V32L465.919 54L458.919 24L457.919 35V46C457.919 52 454.919 75 454.919 75V58L447.919 33V46L449.919 77L441.999 41L440.999 47V76C440.999 80 432.999 102 432.999 102L434.999 81L425.999 47V70C425.999 73 419.999 98 419.999 98C419.999 98 417.999 88 417.999 81C417.999 74 415.999 49 415.999 49C415.999 49 412.999 74 409.999 82C406.999 90 394.999 111 394.999 111C394.999 111 398.999 97 400.999 91C402.999 85 401.999 59 401.999 59C401.999 59 394.999 69 393.999 79C392.999 89 376.999 115 376.999 115C376.999 115 382.999 99 382.999 94C382.999 89 387.999 62 387.999 62C387.999 62 372.999 86 371.999 92C370.999 98 348.999 114 348.999 114C348.999 114 361.999 94 365.999 87C368.675 82.1672 371.014 77.1553 372.999 72C372.999 72 358.999 89 348.999 99C338.999 109 311.059 117 311.059 117L364.069 74C364.069 74 351.669 82 340.759 88.81C333.609 93.25 327.099 97.17 325.129 97.96C320.129 99.96 287.179 121.96 287.179 121.96C287.179 121.96 313.179 97.96 324.129 88.96C335.079 79.96 364.069 66.96 364.069 66.96C364.069 66.96 334.069 80.96 323.129 81.96C312.189 82.96 292.129 96.96 292.129 96.96C292.129 96.96 308.129 78.96 322.129 75.96C336.129 72.96 374.059 55.96 374.059 55.96L351.059 56.96L333.059 62.96L329.159 64.26L303.159 73C303.159 73 349.089 49 359.079 47C369.069 45 399.999 46 399.999 46L368.049 39L321.109 48C321.109 48 359.059 34 364.049 33C369.039 32 401.999 32 401.999 32L386.999 31L333.079 26C333.079 26 387.999 20 396.999 21C405.999 22 434.999 31 434.999 31C434.999 31 420.999 22 405.999 19C395.976 16.8061 386.244 13.4501 376.999 9C376.999 9 402.999 13 419.939 15C436.879 17 440.939 24 440.939 24L426.939 7L416.939 2C416.939 2 440.939 15 443.939 17C446.939 19 450.939 22 450.939 22C450.939 22 444.939 15 441.939 11C438.939 7 430.939 0 430.939 0C430.939 0 450.939 15 453.939 15C456.939 15 457.939 18 457.939 18L447.939 2L464.939 10L470.919 23Z" fill="#263238"/>
<path d="M470.349 41.7L474.539 48.2L481.169 66.43L462.139 48L466.539 56.41L471.659 64.41C474.459 68.75 482.999 86.77 482.999 86.77L475.079 74.48L458.379 59.68L462.109 65.46L464.439 69L480.319 90.48L457.769 68.18L459.839 72.98C459.839 72.98 471.479 91.05 473.349 93.98C475.219 96.91 479.669 116.5 479.669 116.5L471.339 100.39L448.999 80C448.999 80 458.309 94.46 459.709 96.62C461.109 98.78 468.419 119.62 468.419 119.62C465.001 116.086 461.868 112.288 459.049 108.26C455.789 103.2 442.699 86.06 442.699 86.06C442.699 86.06 452.179 105.53 453.699 112.71C455.219 119.89 456.359 140.65 456.359 140.65C456.359 140.65 452.729 128.65 451.359 123.41C449.989 118.17 437.179 99.81 437.179 99.81C437.179 99.81 436.779 110.3 440.709 117.99C444.639 125.68 445.249 152 445.249 152C445.249 152 442.139 137.64 439.809 134C437.479 130.36 428.519 108.54 428.519 108.54C428.519 108.54 428.859 132.87 430.929 137.67C432.999 142.47 424.549 164.29 424.549 164.29C424.549 164.29 424.629 143.78 424.259 136.85C423.943 132.111 423.302 127.4 422.339 122.75C422.339 122.75 420.129 141.56 417.559 153.44C414.989 165.32 398.479 184.15 398.479 184.15L416.759 128.39C416.759 128.39 411.529 140 406.799 150C403.699 156.56 400.799 162.43 399.749 163.92C397.069 167.69 383.459 198.92 383.459 198.92C383.459 198.92 391.079 169.47 394.839 157.84C398.599 146.21 413.499 123.31 413.499 123.31C413.499 123.31 398.339 147.4 390.849 153.25C383.359 159.1 375.429 178.53 375.429 178.53C375.429 178.53 378.619 158.06 387.339 149.38C396.059 140.7 415.609 110.7 415.609 110.7L399.449 122.14L389.229 134.86L386.999 137.63L372.189 156.08C372.189 156.08 394.259 117.31 400.549 111.2C406.839 105.09 429.719 91.39 429.719 91.39L403.329 101.23L373.549 129.62C373.549 129.62 394.499 101.81 397.649 98.76C400.799 95.71 424.649 80.34 424.649 80.34L413.339 86.6L371.999 108.13C371.999 108.13 408.999 78.18 415.929 74.71C422.859 71.24 448.049 64.24 448.049 64.24C448.049 64.24 433.739 64.24 421.499 69.08C413.234 72.1553 404.64 74.2594 395.889 75.35C395.889 75.35 416.539 66.14 429.759 59.67C442.979 53.2 449.129 56.39 449.129 56.39L431.129 50.62L421.579 51.62C421.579 51.62 444.979 49.84 448.079 49.88C451.179 49.92 455.469 50.24 455.469 50.24C455.469 50.24 447.869 47.97 443.839 46.48C439.809 44.99 430.759 43.65 430.759 43.65C430.759 43.65 452.209 45.18 454.369 43.78C455.033 43.3963 455.797 43.2207 456.561 43.2759C457.326 43.3312 458.057 43.6148 458.659 44.09L443.979 37.18L459.979 35.04L470.349 41.7Z" fill="#263238"/>
<path d="M173.539 242.14C172.488 243.239 171.544 244.434 170.719 245.71" stroke="#263238" stroke-linecap="round" stroke-linejoin="round"/>
<path d="M205.999 322.7H303.239C303.239 322.7 306.549 312.76 294.399 306.14C282.249 299.52 276.729 305.03 272.309 299.51C267.889 293.99 284.459 279.63 251.309 265.27C251.309 265.27 249.099 234.34 203.809 233.27C190.219 232.94 181.809 235.59 176.339 239.68" stroke="#263238" stroke-linecap="round" stroke-linejoin="round"/>
<path d="M176.309 322.7H192.499" stroke="#263238" stroke-linecap="round" stroke-linejoin="round"/>
<path d="M67.6588 322.7H147.989" stroke="#263238" stroke-linecap="round" stroke-linejoin="round"/>
<path d="M164.819 261C163.439 265.71 161.939 269.77 158.539 271.94C146.389 279.67 143.079 267.52 130.929 275.25C118.779 282.98 124.299 298.45 114.359 300.65C104.419 302.85 91.1688 290.71 79.0188 298.45C66.8688 306.19 66.8688 312.8 61.3488 312.8C55.8288 312.8 44.7788 308.39 38.1488 312.8C31.5188 317.21 23.7888 322.74 23.7888 322.74H62.9188" stroke="#263238" stroke-linecap="round" stroke-linejoin="round"/>
<path d="M169.459 79.66C168.039 78.2 165.589 76.85 161.339 76.74C151.789 76.51 154.339 83.27 151.789 84.9C149.239 86.53 148.529 83.97 145.969 85.6C143.409 87.23 144.569 90.49 142.469 90.96C140.369 91.43 137.579 88.86 135.019 90.49C132.459 92.12 132.449 93.49 131.289 93.49C130.129 93.49 127.789 92.56 126.399 93.49C125.009 94.42 123.399 95.59 123.399 95.59H148.399" stroke="#263238" stroke-linecap="round" stroke-linejoin="round"/>
<path d="M172.089 83.83L171.359 83.5C171.247 82.629 170.954 81.7911 170.499 81.04" stroke="#263238" stroke-linecap="round" stroke-linejoin="round"/>
<path d="M151.589 95.62H182.309C182.309 95.62 183.009 93.52 180.449 92.12C177.889 90.72 176.719 91.89 175.789 90.72C174.859 89.55 177.639 87.17 173.299 84.49" stroke="#263238" stroke-linecap="round" stroke-linejoin="round"/>
<path d="M86.1688 97.84C84.7588 96.37 82.3088 95.02 78.0588 94.92C68.5088 94.69 71.0588 101.44 68.5088 103.07C65.9588 104.7 65.2488 102.14 62.6788 103.77C60.1088 105.4 61.2788 108.67 59.1888 109.13C57.0988 109.59 54.2988 107.03 51.7288 108.67C49.1588 110.31 49.1688 111.67 47.9988 111.67C46.8288 111.67 44.5088 110.74 43.1088 111.67C41.7088 112.6 40.1088 113.77 40.1088 113.77H65.1088" stroke="#263238" stroke-linecap="round" stroke-linejoin="round"/>
<path d="M88.7988 102L88.0788 101.67C87.9681 100.799 87.6751 99.9605 87.2188 99.21" stroke="#263238" stroke-linecap="round" stroke-linejoin="round"/>
<path d="M68.2988 113.79H98.9988C98.9988 113.79 99.6988 111.69 97.1388 110.3C94.5788 108.91 93.4088 110.06 92.4788 108.9C91.5488 107.74 94.3288 105.35 89.9888 102.67" stroke="#263238" stroke-linecap="round" stroke-linejoin="round"/>
<path d="M301.939 95.62H362.859C362.859 95.62 364.939 89.39 357.319 85.24C349.699 81.09 346.249 84.55 343.479 81.09C340.709 77.63 351.099 68.63 330.339 59.63C330.339 59.63 328.949 40.26 300.579 39.57C288.339 39.27 282.799 42.84 279.839 47.38" stroke="#263238" stroke-linecap="round" stroke-linejoin="round"/>
<path d="M283.349 95.62H293.489" stroke="#263238" stroke-linecap="round" stroke-linejoin="round"/>
<path d="M276.149 56.93C275.279 59.88 274.339 62.43 272.209 63.79C264.599 68.63 262.529 61.02 254.909 65.86C247.289 70.7 250.759 80.39 244.529 81.78C238.299 83.17 229.999 75.55 222.389 80.39C214.779 85.23 214.779 89.39 211.319 89.39C207.859 89.39 200.939 86.62 196.789 89.39C192.639 92.16 187.789 95.62 187.789 95.62H265.599" stroke="#263238" stroke-linecap="round" stroke-linejoin="round"/>
<path d="M442.569 417.31C445.919 417.45 447.879 417.57 449.839 417.57H460.509" stroke="#263238" stroke-linecap="round" stroke-linejoin="round"/>
<path d="M119.839 418.93C137.299 419.05 152.919 419.48 164.509 418.93C177.839 418.26 217.169 412.26 244.509 412.26C271.849 412.26 313.169 412.26 347.169 416.26C381.169 420.26 393.839 416.93 417.169 416.93C424.679 416.93 430.249 417 434.519 417.09" stroke="#263238" stroke-linecap="round" stroke-linejoin="round"/>
<path d="M25.8388 420.23C25.8388 420.23 51.8388 419.57 71.1688 419.57C90.4988 419.57 91.1688 418.9 111.839 418.9" stroke="#263238" stroke-linecap="round" stroke-linejoin="round"/>
<path d="M261.909 430.48C266.389 430.76 269.169 430.9 269.169 430.9" stroke="#263238" stroke-linecap="round" stroke-linejoin="round"/>
<path d="M106.509 430.9C106.509 430.9 112.509 430.9 143.839 429.57C175.169 428.24 199.839 424.23 221.169 426.9C232.639 428.33 245.649 429.38 255.229 430.04" stroke="#263238" stroke-linecap="round" stroke-linejoin="round"/>
<path d="M372.509 423.57C372.509 423.57 359.169 424.9 328.509 422.9C297.849 420.9 291.839 423.57 287.839 423.57H277.839" stroke="#263238" stroke-linecap="round" stroke-linejoin="round"/>
<path d="M349.179 432.48C343.605 432.511 338.039 432.875 332.509 433.57C317.839 435.57 307.169 437.57 301.169 438.23" stroke="#263238" stroke-linecap="round" stroke-linejoin="round"/>
<path d="M366.509 432.9C366.509 432.9 363.009 432.66 357.859 432.53" stroke="#263238" stroke-linecap="round" stroke-linejoin="round"/>
<path d="M103.179 438.62C108.349 438.76 111.839 438.9 111.839 438.9" stroke="#263238" stroke-linecap="round" stroke-linejoin="round"/>
<path d="M53.8388 440.23C62.4396 438.883 71.1331 438.214 79.8388 438.23C84.9088 438.23 90.2988 438.31 95.1788 438.42" stroke="#263238" stroke-linecap="round" stroke-linejoin="round"/>
<path d="M335.189 243.06C335.189 243.06 319.639 229.06 313.939 230.88C308.239 232.7 304.869 254.72 304.869 266.65C304.869 278.58 302.799 297.49 302.799 297.49L324.309 285.31C324.309 285.31 335.449 282.72 342.969 269.76C350.489 256.8 335.189 243.06 335.189 243.06Z" fill="white" stroke="#263238" stroke-linecap="round" stroke-linejoin="round"/>
<path d="M117.849 359.06C117.849 359.06 94.2688 371.5 89.8488 371.76C85.4288 372.02 72.7388 370.2 68.3388 367.09C63.9388 363.98 60.8188 360.61 58.4888 361.39C56.1588 362.17 55.1188 364.76 55.8988 366.06C56.3111 366.788 56.9077 367.395 57.6288 367.82C57.6288 367.82 53.8388 368.56 54.5688 371.82C54.8414 372.72 54.9398 373.663 54.8588 374.6C54.8588 374.6 53.5588 378.23 54.3388 379.52C55.1188 380.81 56.4188 383.15 56.4188 383.15C56.4188 383.15 56.9288 385.75 61.5988 388.34C63.4051 389.527 65.1352 390.826 66.7788 392.23C69.8888 394.82 83.3688 404.15 87.2588 404.67C91.1488 405.19 95.2588 402.07 97.6288 399.74C99.9988 397.41 102.549 386.74 105.399 383.15C108.249 379.56 127.319 355.8 128.869 352.69C130.419 349.58 117.849 359.06 117.849 359.06Z" fill="white" stroke="#263238" stroke-linecap="round" stroke-linejoin="round"/>
<path d="M58.2388 366.83C58.2388 366.83 55.3888 375.91 56.1688 380.31" stroke="#263238" stroke-linecap="round" stroke-linejoin="round"/>
<path d="M322.209 398.36C321.015 398.36 319.871 397.886 319.027 397.042C318.183 396.198 317.709 395.053 317.709 393.86V293.53C317.709 292.337 318.183 291.192 319.027 290.348C319.871 289.504 321.015 289.03 322.209 289.03C323.402 289.03 324.547 289.504 325.391 290.348C326.235 291.192 326.709 292.337 326.709 293.53V393.86C326.71 394.451 326.595 395.037 326.369 395.584C326.143 396.13 325.812 396.627 325.394 397.045C324.976 397.463 324.479 397.794 323.932 398.02C323.386 398.246 322.8 398.361 322.209 398.36Z" fill="#263238" stroke="#263238" stroke-linecap="round" stroke-linejoin="round"/>
<path d="M244.509 373.9C244.509 373.9 268.509 366.5 281.509 362.4C294.509 358.3 314.199 348.34 324.259 341.64C334.319 334.94 342.149 330.46 346.259 321.89C350.369 313.32 353.719 304.75 353.719 296.89V289.07L224.419 369.58L244.509 373.9Z" fill="white" stroke="#263238" stroke-linecap="round" stroke-linejoin="round"/>
<path d="M143.809 418.4C142.61 418.402 141.443 418.011 140.486 417.288C139.529 416.565 138.835 415.55 138.509 414.396C138.183 413.242 138.243 412.013 138.68 410.896C139.116 409.78 139.906 408.836 140.929 408.21L373.599 265.87C374.844 265.109 376.341 264.873 377.759 265.216C379.178 265.558 380.403 266.45 381.164 267.695C381.925 268.94 382.16 270.437 381.818 271.855C381.476 273.274 380.584 274.499 379.339 275.26L146.669 417.59C145.808 418.119 144.819 418.399 143.809 418.4Z" fill="#263238" stroke="#263238" stroke-linecap="round" stroke-linejoin="round"/>
<path d="M173.999 314.6C173.999 314.6 160.999 309.67 157.409 310.97C153.819 312.27 148.339 322.63 147.819 323.97C147.299 325.31 122.819 348.73 118.389 356.51C113.959 364.29 98.3888 384.24 98.3888 384.24C98.3888 384.24 95.0488 396.9 92.9988 399C90.9488 401.1 86.2588 400.56 83.4088 398.74C79.8039 396.303 76.0756 394.053 72.2388 392C68.8149 390.465 65.2564 389.25 61.6088 388.37C61.7929 390.805 62.1268 393.226 62.6088 395.62C63.3788 399.25 63.8988 401.85 67.7888 404.96C71.6788 408.07 75.7888 411.96 80.2288 414.29C84.6688 416.62 89.0388 420.77 94.2288 417.91C99.4188 415.05 103.599 407 104.889 406C106.179 405 112.409 393.82 118.369 390.19C124.329 386.56 141.579 372.69 148.579 365.43C155.579 358.17 162.829 342.1 162.829 342.1L172.939 347.8C172.939 347.8 182.529 338.47 182.529 329.4C182.529 320.33 173.999 314.6 173.999 314.6Z" fill="white" stroke="#263238" stroke-linecap="round" stroke-linejoin="round"/>
<path d="M92.9988 399C90.9288 401.08 86.2588 400.56 83.4088 398.74C79.8039 396.303 76.0756 394.053 72.2388 392C71.0878 391.437 69.906 390.939 68.6988 390.51C69.6988 392.6 70.9888 395.42 72.2988 398.46C74.4788 403.56 78.4688 410.98 82.5988 415.64C86.2488 417.86 89.9988 420.26 94.2688 417.91C96.3421 416.642 98.1628 415.001 99.6388 413.07C100.439 409.18 100.639 403.35 100.639 396.4C100.639 386.96 104.469 377.24 104.469 377.24L103.529 377.59C100.609 381.46 98.4488 384.22 98.4488 384.22C98.4488 384.22 95.0488 396.9 92.9988 399Z" fill="#263238" stroke="#263238" stroke-linecap="round" stroke-linejoin="round"/>
<path d="M173.999 338L169.579 339.48L165.149 339.18L157.499 333C158.773 336.812 158.874 340.92 157.789 344.79C156.019 351.58 147.469 365.14 147.469 365.14L141.089 372.4C144.089 369.81 146.689 367.4 148.579 365.4C155.579 358.14 162.829 342.07 162.829 342.07L172.939 347.77C174.408 346.282 175.765 344.688 176.999 343C175.669 340.61 173.999 338 173.999 338Z" fill="#263238" stroke="#263238" stroke-linecap="round" stroke-linejoin="round"/>
<path d="M234.369 328.59C234.369 328.59 208.449 321.08 197.569 317.97C186.689 314.86 175.019 312.26 172.939 313.3C170.859 314.34 167.759 341.03 168.279 343.63C168.658 345.344 169.267 346.999 170.089 348.55C170.089 348.55 194.709 358.92 204.089 362.29C213.469 365.66 226.379 372.4 230.519 372.4C234.659 372.4 239.079 369.54 240.629 367.99C242.179 366.44 241.149 347.51 241.149 340.77C241.185 336.931 240.748 333.102 239.849 329.37L234.369 328.59Z" fill="#263238" stroke="#263238" stroke-linecap="round" stroke-linejoin="round"/>
<path d="M320.679 283C320.679 283 311.089 286.37 297.349 295.7C283.609 305.03 273.999 315.12 268.839 319C263.679 322.88 243.959 327 241.369 327H234.369C234.369 327 231.259 332.48 230.999 346C231.012 354.826 232.503 363.587 235.409 371.92C245.332 367.964 255.563 364.83 265.999 362.55C284.399 358.4 312.139 345.44 326.389 335.07C340.639 324.7 344.539 320.3 347.899 313.56C351.259 306.82 353.349 303.19 352.309 295.42C351.269 287.65 339.609 281.94 332.089 281.42C324.569 280.9 320.679 283 320.679 283Z" fill="#92E3A9" stroke="#263238" stroke-linecap="round" stroke-linejoin="round"/>
<path d="M278.119 348.56C280.065 348.989 282.057 349.17 284.049 349.1" stroke="#263238" stroke-linecap="round" stroke-linejoin="round"/>
<path d="M241.359 329.35C241.359 329.35 239.489 334.95 258.169 342.43C263.633 344.677 269.259 346.509 274.999 347.91" stroke="#263238" stroke-linecap="round" stroke-linejoin="round"/>
<path d="M253.889 332C257.509 333.62 263.889 335.48 273.889 335.48" stroke="#263238" stroke-linecap="round" stroke-linejoin="round"/>
<path d="M249.899 329.62C250.286 329.958 250.701 330.262 251.139 330.53" stroke="#263238" stroke-linecap="round" stroke-linejoin="round"/>
<path d="M287.829 314C285.999 313.25 285.119 312.77 285.119 312.77" stroke="#263238" stroke-linecap="round" stroke-linejoin="round"/>
<path d="M335.549 319.21C335.549 319.21 338.749 324.55 316.869 321.35C307.975 320.16 299.221 318.087 290.739 315.16" stroke="#263238" stroke-linecap="round" stroke-linejoin="round"/>
<path d="M333.639 239.43C333.639 239.43 324.309 242.02 323.789 245.13C323.269 248.24 321.719 250.06 320.679 250.58C319.639 251.1 314.199 249.58 312.899 251.1C311.599 252.62 312.389 257.58 312.389 257.58C310.536 260.711 308.973 264.005 307.719 267.42C306.169 272.09 307.719 272.87 309.529 273.65C311.339 274.43 315.529 276.76 315.529 276.76L316.819 286.35C316.819 286.35 309.819 293.08 311.119 293.86C312.419 294.64 335.219 283.24 335.219 283.24C335.219 283.24 347.919 280.38 351.289 278.31C354.659 276.24 364.289 262.76 361.399 254.72C358.509 246.68 347.669 241.72 342.999 240.99L333.639 239.43Z" fill="white" stroke="#263238" stroke-linecap="round" stroke-linejoin="round"/>
<path d="M339.779 270.83C339.779 270.83 326.779 275.26 322.079 275.26C317.979 275.26 309.869 273.13 307.749 272.56C308.259 273.045 308.865 273.416 309.529 273.65C311.349 274.42 315.529 276.76 315.529 276.76L315.659 277.76L332.289 284.71L333.649 284.03L339.779 270.83Z" fill="#263238"/>
<path d="M329.749 249.54L327.419 252.13C327.419 252.13 328.969 254.21 330.789 254.21" stroke="#263238" stroke-linecap="round" stroke-linejoin="round"/>
<path d="M328.999 245.91C328.999 245.91 332.889 243.32 336.519 249.28" stroke="#263238" stroke-linecap="round" stroke-linejoin="round"/>
<path d="M314.459 260.94C315.534 261.892 316.819 262.577 318.21 262.938C319.6 263.3 321.056 263.328 322.459 263.02" stroke="#263238" stroke-linecap="round" stroke-linejoin="round"/>
<path d="M356.449 241.51C356.449 241.51 350.749 235.51 345.039 233.21C339.329 230.91 333.379 229.58 333.639 231.4C333.899 233.22 338.049 235.8 338.049 235.8C338.049 235.8 327.419 234.51 328.199 237.88C328.979 241.25 353.599 248.5 353.599 248.5C353.599 248.5 342.449 250.58 342.709 252.91C342.969 255.24 344.009 255.24 344.009 256.8C344.009 258.36 338.819 264.31 339.859 265.35C340.899 266.39 345.039 260.94 346.079 260.94C347.119 260.94 351.519 260.43 351.519 266.39C351.519 272.35 347.639 274.39 346.079 274.68C344.211 275.221 342.391 275.917 340.639 276.76C340.639 276.76 347.379 279.35 350.999 279.35C354.619 279.35 363.999 276.76 367.589 269.76C371.179 262.76 367.329 248.76 363.959 245.13C362.018 242.998 359.326 241.7 356.449 241.51Z" fill="#263238"/>
<path d="M328.999 295.94C328.999 295.94 331.849 284.79 334.999 275.46C338.149 266.13 344.839 249.8 348.469 241.76C352.099 233.72 359.359 231.92 361.689 232.17C364.019 232.42 367.909 240.99 367.689 246.69C367.469 252.39 363.289 260.43 362.769 263.02C362.249 265.61 354.219 288.94 354.219 294.12C354.219 299.3 349.029 308.64 345.139 311.75" fill="#92E3A9"/>
<path d="M328.999 295.94C328.999 295.94 331.849 284.79 334.999 275.46C338.149 266.13 344.839 249.8 348.469 241.76C352.099 233.72 359.359 231.92 361.689 232.17C364.019 232.42 367.909 240.99 367.689 246.69C367.469 252.39 363.289 260.43 362.769 263.02C362.249 265.61 354.219 288.94 354.219 294.12C354.219 299.3 349.029 308.64 345.139 311.75" stroke="#263238" stroke-linecap="round" stroke-linejoin="round"/>
<path d="M367.589 246.69C367.849 240.99 363.959 232.43 361.589 232.17C359.219 231.91 351.999 233.73 348.369 241.76C344.739 249.79 338.009 266.13 334.899 275.46C334.139 277.72 333.409 280.08 332.719 282.36C334.519 287.05 338.499 296.77 340.859 297.75C343.009 298.65 349.399 297.05 354.069 294.26C354.069 294.26 354.069 294.17 354.069 294.12C354.069 288.94 362.069 265.61 362.619 263.02C363.169 260.43 367.329 252.39 367.589 246.69Z" fill="white" stroke="#263238" stroke-linecap="round" stroke-linejoin="round"/>
<path d="M166.529 360.16C165.779 359.409 165.296 358.432 165.153 357.38C165.01 356.328 165.216 355.258 165.739 354.334C166.261 353.41 167.072 352.683 168.047 352.263C169.023 351.843 170.108 351.754 171.139 352.01L388.759 408.84C389.404 408.969 390.016 409.226 390.558 409.598C391.101 409.97 391.562 410.447 391.915 411.002C392.268 411.557 392.505 412.177 392.612 412.826C392.718 413.475 392.693 414.139 392.536 414.777C392.379 415.416 392.095 416.016 391.7 416.542C391.305 417.067 390.807 417.507 390.238 417.836C389.668 418.164 389.038 418.373 388.385 418.452C387.732 418.53 387.07 418.475 386.439 418.29L168.819 361.46C167.949 361.249 167.156 360.798 166.529 360.16V360.16Z" fill="#263238" stroke="#263238" stroke-linecap="round" stroke-linejoin="round"/>
<path d="M150.509 418.4C149.311 418.399 148.145 418.007 147.19 417.284C146.235 416.56 145.543 415.544 145.218 414.391C144.893 413.238 144.954 412.01 145.391 410.894C145.828 409.778 146.617 408.836 147.639 408.21L380.299 265.87C381.544 265.109 383.041 264.873 384.459 265.216C385.878 265.558 387.103 266.45 387.864 267.695C388.625 268.94 388.86 270.437 388.518 271.855C388.176 273.274 387.284 274.499 386.039 275.26L153.379 417.59C152.515 418.12 151.522 418.4 150.509 418.4Z" fill="white" stroke="#263238" stroke-linecap="round" stroke-linejoin="round"/>
<path d="M167.599 357.9C166.855 357.145 166.378 356.169 166.24 355.119C166.101 354.069 166.309 353.002 166.831 352.08C167.354 351.159 168.162 350.433 169.134 350.012C170.107 349.592 171.189 349.5 172.219 349.75L394.829 408.45C396.033 408.802 397.055 409.606 397.681 410.693C398.307 411.78 398.49 413.067 398.191 414.285C397.892 415.504 397.134 416.56 396.075 417.233C395.017 417.906 393.739 418.145 392.509 417.9L169.899 359.2C169.025 358.991 168.228 358.541 167.599 357.9V357.9Z" fill="white" stroke="#263238" stroke-linecap="round" stroke-linejoin="round"/>
<path d="M222.509 370.4C223.613 370.4 224.509 369.505 224.509 368.4C224.509 367.295 223.613 366.4 222.509 366.4C221.404 366.4 220.509 367.295 220.509 368.4C220.509 369.505 221.404 370.4 222.509 370.4Z" fill="#263238" stroke="#263238" stroke-linecap="round" stroke-linejoin="round"/>
<path d="M391.509 414.9C392.613 414.9 393.509 414.005 393.509 412.9C393.509 411.795 392.613 410.9 391.509 410.9C390.404 410.9 389.509 411.795 389.509 412.9C389.509 414.005 390.404 414.9 391.509 414.9Z" fill="#263238" stroke="#263238" stroke-linecap="round" stroke-linejoin="round"/>
<path d="M174.509 357.9C175.613 357.9 176.509 357.005 176.509 355.9C176.509 354.795 175.613 353.9 174.509 353.9C173.404 353.9 172.509 354.795 172.509 355.9C172.509 357.005 173.404 357.9 174.509 357.9Z" fill="#263238" stroke="#263238" stroke-linecap="round" stroke-linejoin="round"/>
<path d="M165.509 405.4C166.613 405.4 167.509 404.505 167.509 403.4C167.509 402.295 166.613 401.4 165.509 401.4C164.404 401.4 163.509 402.295 163.509 403.4C163.509 404.505 164.404 405.4 165.509 405.4Z" fill="#263238" stroke="#263238" stroke-linecap="round" stroke-linejoin="round"/>
<path d="M374.009 277.9C375.113 277.9 376.009 277.005 376.009 275.9C376.009 274.795 375.113 273.9 374.009 273.9C372.904 273.9 372.009 274.795 372.009 275.9C372.009 277.005 372.904 277.9 374.009 277.9Z" fill="#263238" stroke="#263238" stroke-linecap="round" stroke-linejoin="round"/>
<path d="M334.509 405.07C333.315 405.07 332.171 404.596 331.327 403.752C330.483 402.908 330.009 401.763 330.009 400.57V300.23C330.009 299.037 330.483 297.892 331.327 297.048C332.171 296.204 333.315 295.73 334.509 295.73C335.702 295.73 336.847 296.204 337.691 297.048C338.535 297.892 339.009 299.037 339.009 300.23V400.57C339.006 401.763 338.531 402.906 337.688 403.749C336.844 404.592 335.701 405.067 334.509 405.07V405.07Z" fill="white" stroke="#263238" stroke-linecap="round" stroke-linejoin="round"/>
<path d="M334.509 400.9C335.613 400.9 336.509 400.005 336.509 398.9C336.509 397.795 335.613 396.9 334.509 396.9C333.404 396.9 332.509 397.795 332.509 398.9C332.509 400.005 333.404 400.9 334.509 400.9Z" fill="#263238" stroke="#263238" stroke-linecap="round" stroke-linejoin="round"/>
<path d="M334.509 303.4C335.613 303.4 336.509 302.505 336.509 301.4C336.509 300.295 335.613 299.4 334.509 299.4C333.404 299.4 332.509 300.295 332.509 301.4C332.509 302.505 333.404 303.4 334.509 303.4Z" fill="#263238" stroke="#263238" stroke-linecap="round" stroke-linejoin="round"/>
<path d="M224.509 326.23L260.509 324.23L235.169 317.9L198.169 319.23L224.509 326.23Z" fill="#D4D4D4" stroke="#263238" stroke-linecap="round" stroke-linejoin="round"/>
<path d="M224.509 326.23L198.169 319.23V284.56L224.509 287.23V326.23Z" fill="#A8A8A8" stroke="#263238" stroke-linecap="round" stroke-linejoin="round"/>
<path d="M227.259 319.77L238.999 323.35H249.979L236.189 319.52L227.259 319.77Z" fill="#D4D4D4" stroke="#263238" stroke-linecap="round" stroke-linejoin="round"/>
<path d="M224.509 287.23L198.169 284.57V314.94C199.406 315.16 200.679 315.068 201.872 314.671C203.064 314.275 204.139 313.587 204.999 312.67C208.669 308.33 210.999 299 217.669 296.67C221.169 295.44 223.279 294.67 224.509 294.23V287.23Z" fill="#263238" stroke="#263238" stroke-linecap="round" stroke-linejoin="round"/>
<path d="M210.499 308.67C211.697 308.67 212.669 306.803 212.669 304.5C212.669 302.197 211.697 300.33 210.499 300.33C209.3 300.33 208.329 302.197 208.329 304.5C208.329 306.803 209.3 308.67 210.499 308.67Z" fill="white" stroke="#263238" stroke-linecap="round" stroke-linejoin="round"/>
<path d="M420.839 254.74C441.273 254.74 457.839 238.175 457.839 217.74C457.839 197.305 441.273 180.74 420.839 180.74C400.404 180.74 383.839 197.305 383.839 217.74C383.839 238.175 400.404 254.74 420.839 254.74Z" fill="white" stroke="#92E3A9" stroke-width="6" stroke-linecap="round" stroke-linejoin="round"/>
<path d="M436.809 227.84C434.559 227.84 433.479 227.03 432.999 226.04V212.36C432.999 210.145 432.331 207.982 431.083 206.153C429.834 204.325 428.062 202.915 425.999 202.11C426.051 201.87 426.077 201.625 426.079 201.38C426.079 200.923 425.989 200.47 425.814 200.048C425.639 199.626 425.383 199.242 425.059 198.919C424.736 198.596 424.353 198.34 423.93 198.165C423.508 197.99 423.056 197.9 422.599 197.9H421.699C421.188 197.903 420.684 198.018 420.223 198.237C419.761 198.456 419.354 198.774 419.028 199.168C418.703 199.562 418.468 200.022 418.341 200.517C418.213 201.011 418.195 201.528 418.289 202.03C416.159 202.793 414.316 204.194 413.011 206.043C411.707 207.892 411.004 210.097 410.999 212.36V226C410.519 227 409.449 227.8 407.189 227.8V231.61H418.409C418.409 231.69 418.409 231.76 418.409 231.84C418.409 232.792 418.787 233.705 419.46 234.379C420.133 235.052 421.047 235.43 421.999 235.43C422.951 235.43 423.864 235.052 424.537 234.379C425.211 233.705 425.589 232.792 425.589 231.84C425.589 231.76 425.589 231.69 425.589 231.61H436.809V227.84Z" fill="#263238"/>
<path d="M390.489 236.57L450.479 195.56" stroke="#92E3A9" stroke-width="6" stroke-linecap="round" stroke-linejoin="round"/>
<path d="M340.911 188.718C355.361 174.269 355.361 150.842 340.911 136.392C326.462 121.943 303.035 121.943 288.585 136.392C274.136 150.842 274.136 174.269 288.585 188.718C303.035 203.168 326.462 203.168 340.911 188.718Z" fill="white" stroke="#92E3A9" stroke-width="6" stroke-linecap="round" stroke-linejoin="round"/>
<path d="M330.679 154.31C330.257 154.314 329.837 154.344 329.419 154.4C329.019 151.048 327.471 147.938 325.039 145.598C322.607 143.257 319.44 141.83 316.075 141.559C312.71 141.288 309.356 142.19 306.58 144.112C303.805 146.033 301.78 148.855 300.849 152.1C298.102 152.469 295.595 153.862 293.83 155.999C292.066 158.137 291.173 160.862 291.331 163.629C291.489 166.396 292.686 169.002 294.682 170.925C296.679 172.848 299.327 173.946 302.099 174H330.679C333.286 174 335.786 172.964 337.63 171.121C339.473 169.277 340.509 166.777 340.509 164.17C340.509 161.563 339.473 159.063 337.63 157.219C335.786 155.376 333.286 154.34 330.679 154.34V154.31Z" fill="#263238"/>
<path d="M312.179 182.05L308.109 175L304.029 182.05H306.109V187.7H310.109V182.05H312.179Z" fill="#263238"/>
<path d="M316.929 180.65L320.999 187.7L325.069 180.65H322.999V175H318.999V180.65H316.929Z" fill="#263238"/>
<path d="M283.729 181.38L343.719 140.37" stroke="#92E3A9" stroke-width="6" stroke-linecap="round" stroke-linejoin="round"/>
<path d="M191.429 213.986C211.334 209.365 223.724 189.483 219.103 169.578C214.482 149.672 194.6 137.282 174.694 141.903C154.789 146.524 142.399 166.407 147.02 186.312C151.641 206.217 171.524 218.607 191.429 213.986Z" fill="white" stroke="#92E3A9" stroke-width="6" stroke-linecap="round" stroke-linejoin="round"/>
<path d="M183.679 180.47C183.679 179.144 184.206 177.872 185.143 176.934C186.081 175.997 187.353 175.47 188.679 175.47H193.729V161.12C193.729 159.744 193.182 158.423 192.209 157.45C191.235 156.477 189.915 155.93 188.539 155.93H160.999C159.622 155.93 158.302 156.477 157.329 157.45C156.356 158.423 155.809 159.744 155.809 161.12V177.12C155.809 178.496 156.356 179.817 157.329 180.79C158.302 181.763 159.622 182.31 160.999 182.31H167.179L172.589 193.5L175.589 182.31H183.719L183.679 180.47Z" fill="#263238"/>
<path d="M188.689 176.93H207.479C207.944 176.929 208.406 177.019 208.837 177.197C209.267 177.374 209.659 177.634 209.988 177.963C210.318 178.292 210.58 178.683 210.758 179.113C210.937 179.543 211.029 180.004 211.029 180.47V191.37C211.026 192.31 210.651 193.21 209.985 193.874C209.32 194.537 208.419 194.91 207.479 194.91H203.279L199.579 202.54L197.579 194.91H188.719C187.78 194.91 186.879 194.537 186.216 193.873C185.552 193.209 185.179 192.309 185.179 191.37V180.47C185.176 179.536 185.544 178.638 186.202 177.975C186.86 177.311 187.754 176.935 188.689 176.93V176.93Z" fill="#263238"/>
<path d="M163.379 163.2H186.149" stroke="#92E3A9" stroke-width="3" stroke-linecap="round" stroke-linejoin="round"/>
<path d="M163.379 168.79H186.149" stroke="#92E3A9" stroke-width="3" stroke-linecap="round" stroke-linejoin="round"/>
<path d="M163.379 174.38H186.149" stroke="#92E3A9" stroke-width="3" stroke-linecap="round" stroke-linejoin="round"/>
<path d="M151.999 196.76L211.989 155.75" stroke="#92E3A9" stroke-width="6" stroke-linecap="round" stroke-linejoin="round"/>
<path d="M107.147 270.065C121.596 255.615 121.596 232.188 107.147 217.739C92.6975 203.289 69.2704 203.289 54.821 217.739C40.3716 232.188 40.3716 255.615 54.821 270.065C69.2704 284.514 92.6975 284.514 107.147 270.065Z" fill="white" stroke="#92E3A9" stroke-width="6" stroke-linecap="round" stroke-linejoin="round"/>
<path d="M80.9988 229.69C75.4577 229.668 70.0155 231.158 65.2588 234C63.2998 235.281 61.4135 236.67 59.6088 238.16C59.1487 238.592 58.5844 238.898 57.9709 239.047C57.3575 239.196 56.7159 239.183 56.1088 239.01C55.6434 238.866 55.2167 238.619 54.8608 238.287C54.5048 237.955 54.2288 237.546 54.0536 237.092C53.8784 236.637 53.8085 236.149 53.8493 235.664C53.89 235.178 54.0403 234.709 54.2888 234.29C54.6843 233.707 55.155 233.179 55.6888 232.72C61.6249 227.353 69.1252 224.03 77.0888 223.24C88.2788 222.12 97.9988 225.53 106.429 232.84C106.885 233.159 107.271 233.569 107.561 234.044C107.852 234.519 108.042 235.048 108.119 235.6C108.19 236.232 108.076 236.872 107.79 237.44C107.503 238.008 107.057 238.481 106.506 238.799C105.955 239.118 105.323 239.269 104.688 239.233C104.052 239.198 103.441 238.978 102.929 238.6C102.269 238.15 101.689 237.6 101.069 237.06C95.6843 232.515 88.9124 229.941 81.8688 229.76L80.9988 229.69Z" fill="#263238"/>
<path d="M97.5088 247.53C97.0282 247.53 96.5527 247.433 96.1109 247.244C95.6692 247.055 95.2704 246.778 94.9388 246.43C91.3842 242.996 86.6838 240.999 81.7442 240.826C76.8046 240.652 71.9756 242.314 68.1888 245.49C67.6288 245.95 67.0888 246.49 66.4888 246.88C65.8249 247.375 64.9981 247.601 64.1744 247.512C63.3508 247.423 62.5914 247.026 62.0488 246.4C61.5097 245.787 61.2216 244.994 61.242 244.178C61.2624 243.363 61.5898 242.585 62.1588 242C64.805 239.243 68.0578 237.14 71.6588 235.86C74.9892 234.586 78.5447 234.005 82.1075 234.153C85.6703 234.301 89.1654 235.174 92.3788 236.72C95.1356 237.981 97.6424 239.729 99.7788 241.88C100.264 242.349 100.592 242.956 100.717 243.619C100.842 244.281 100.759 244.967 100.479 245.58C100.241 246.169 99.8291 246.671 99.2984 247.019C98.7678 247.367 98.1434 247.546 97.5088 247.53Z" fill="#263238"/>
<path d="M80.9088 245.25C83.0661 245.24 85.2019 245.68 87.1801 246.541C89.1583 247.401 90.9355 248.665 92.3988 250.25C92.9932 250.844 93.3387 251.642 93.3647 252.482C93.3907 253.322 93.0953 254.14 92.5388 254.77C91.9523 255.404 91.144 255.788 90.2818 255.842C89.4197 255.896 88.5698 255.616 87.9088 255.06C86.7965 254.083 85.563 253.252 84.2388 252.59C80.7588 251.18 77.5788 251.97 74.8088 254.45C74.3884 254.937 73.8551 255.314 73.2554 255.548C72.6557 255.781 72.008 255.865 71.3688 255.79C70.8167 255.696 70.2984 255.461 69.8648 255.107C69.4312 254.752 69.0972 254.291 68.8955 253.769C68.6938 253.246 68.6313 252.681 68.7143 252.127C68.7973 251.573 69.0228 251.05 69.3688 250.61C70.8485 248.779 72.778 247.363 74.9688 246.5C76.8481 245.699 78.8661 245.275 80.9088 245.25Z" fill="#263238"/>
<path d="M81.0488 264.75C80.5205 264.761 79.9955 264.665 79.5052 264.468C79.015 264.271 78.5697 263.976 78.1961 263.603C77.8224 263.229 77.5282 262.784 77.331 262.294C77.1339 261.803 77.0379 261.278 77.0488 260.75C77.0486 259.699 77.4618 258.691 78.199 257.943C78.9363 257.194 79.9383 256.766 80.9888 256.75C81.5473 256.681 82.1141 256.731 82.6521 256.896C83.1901 257.061 83.6871 257.338 84.1108 257.709C84.5345 258.079 84.8752 258.535 85.1108 259.046C85.3463 259.557 85.4713 260.112 85.4777 260.675C85.4841 261.237 85.3716 261.795 85.1477 262.311C84.9238 262.828 84.5935 263.291 84.1783 263.671C83.7631 264.051 83.2724 264.339 82.7383 264.516C82.2042 264.694 81.6387 264.756 81.0788 264.7L81.0488 264.75Z" fill="#263238"/>
<path d="M49.8988 262.72L109.889 221.71" stroke="#92E3A9" stroke-width="6" stroke-linecap="round" stroke-linejoin="round"/>
<path d="M131.542 468.09L124.732 481.11V489H122.002V481.11L115.162 468.09H118.192L123.352 478.68L128.512 468.09H131.542ZM143.901 489.21C141.961 489.21 140.191 488.76 138.591 487.86C136.991 486.94 135.721 485.67 134.781 484.05C133.861 482.41 133.401 480.57 133.401 478.53C133.401 476.49 133.861 474.66 134.781 473.04C135.721 471.4 136.991 470.13 138.591 469.23C140.191 468.31 141.961 467.85 143.901 467.85C145.861 467.85 147.641 468.31 149.241 469.23C150.841 470.13 152.101 471.39 153.021 473.01C153.941 474.63 154.401 476.47 154.401 478.53C154.401 480.59 153.941 482.43 153.021 484.05C152.101 485.67 150.841 486.94 149.241 487.86C147.641 488.76 145.861 489.21 143.901 489.21ZM143.901 486.84C145.361 486.84 146.671 486.5 147.831 485.82C149.011 485.14 149.931 484.17 150.591 482.91C151.271 481.65 151.611 480.19 151.611 478.53C151.611 476.85 151.271 475.39 150.591 474.15C149.931 472.89 149.021 471.92 147.861 471.24C146.701 470.56 145.381 470.22 143.901 470.22C142.421 470.22 141.101 470.56 139.941 471.24C138.781 471.92 137.861 472.89 137.181 474.15C136.521 475.39 136.191 476.85 136.191 478.53C136.191 480.19 136.521 481.65 137.181 482.91C137.861 484.17 138.781 485.14 139.941 485.82C141.121 486.5 142.441 486.84 143.901 486.84ZM160.675 468.09V481.32C160.675 483.18 161.125 484.56 162.025 485.46C162.945 486.36 164.215 486.81 165.835 486.81C167.435 486.81 168.685 486.36 169.585 485.46C170.505 484.56 170.965 483.18 170.965 481.32V468.09H173.695V481.29C173.695 483.03 173.345 484.5 172.645 485.7C171.945 486.88 170.995 487.76 169.795 488.34C168.615 488.92 167.285 489.21 165.805 489.21C164.325 489.21 162.985 488.92 161.785 488.34C160.605 487.76 159.665 486.88 158.965 485.7C158.285 484.5 157.945 483.03 157.945 481.29V468.09H160.675ZM198.608 484.35H189.488L187.808 489H184.927L192.488 468.21H195.638L203.168 489H200.288L198.608 484.35ZM197.828 482.13L194.048 471.57L190.268 482.13H197.828ZM217.472 489L212.492 480.45H209.192V489H206.462V468.09H213.212C214.792 468.09 216.122 468.36 217.202 468.9C218.302 469.44 219.122 470.17 219.662 471.09C220.202 472.01 220.472 473.06 220.472 474.24C220.472 475.68 220.052 476.95 219.212 478.05C218.392 479.15 217.152 479.88 215.492 480.24L220.742 489H217.472ZM209.192 478.26H213.212C214.692 478.26 215.802 477.9 216.542 477.18C217.282 476.44 217.652 475.46 217.652 474.24C217.652 473 217.282 472.04 216.542 471.36C215.822 470.68 214.712 470.34 213.212 470.34H209.192V478.26ZM227.444 470.31V477.3H235.064V479.55H227.444V486.75H235.964V489H224.714V468.06H235.964V470.31H227.444ZM257.573 489.21C255.633 489.21 253.863 488.76 252.263 487.86C250.663 486.94 249.393 485.67 248.453 484.05C247.533 482.41 247.073 480.57 247.073 478.53C247.073 476.49 247.533 474.66 248.453 473.04C249.393 471.4 250.663 470.13 252.263 469.23C253.863 468.31 255.633 467.85 257.573 467.85C259.533 467.85 261.313 468.31 262.913 469.23C264.513 470.13 265.773 471.39 266.693 473.01C267.613 474.63 268.073 476.47 268.073 478.53C268.073 480.59 267.613 482.43 266.693 484.05C265.773 485.67 264.513 486.94 262.913 487.86C261.313 488.76 259.533 489.21 257.573 489.21ZM257.573 486.84C259.033 486.84 260.343 486.5 261.503 485.82C262.683 485.14 263.603 484.17 264.263 482.91C264.943 481.65 265.283 480.19 265.283 478.53C265.283 476.85 264.943 475.39 264.263 474.15C263.603 472.89 262.693 471.92 261.533 471.24C260.373 470.56 259.053 470.22 257.573 470.22C256.093 470.22 254.773 470.56 253.613 471.24C252.453 471.92 251.533 472.89 250.853 474.15C250.193 475.39 249.863 476.85 249.863 478.53C249.863 480.19 250.193 481.65 250.853 482.91C251.533 484.17 252.453 485.14 253.613 485.82C254.793 486.5 256.113 486.84 257.573 486.84ZM283.497 468.09V470.31H274.407V477.36H281.787V479.58H274.407V489H271.677V468.09H283.497ZM298.614 468.09V470.31H289.524V477.36H296.904V479.58H289.524V489H286.794V468.09H298.614ZM304.642 486.78H311.962V489H301.912V468.09H304.642V486.78ZM317.591 468.09V489H314.861V468.09H317.591ZM338.684 489H335.954L324.974 472.35V489H322.244V468.06H324.974L335.954 484.68V468.06H338.684V489ZM346.067 470.31V477.3H353.687V479.55H346.067V486.75H354.587V489H343.337V468.06H354.587V470.31H346.067Z" fill="black"/>
</svg>
